<svg width="1em" height="1em" viewBox="0 0 40 40" fill="none" xmlns="http://www.w3.org/2000/svg">
    <rect width="1em" height="1em" fill="#005BAA"/>
    <path d="M20 33C27.1797 33 33 27.1797 33 20C33 12.8203 27.1797 7 20 7C12.8203 7 7 12.8203 7 20C7 27.1797 12.8203 33 20 33Z" fill="white"/>
    <path d="M20.0004 7.9209C17.6083 7.91868 15.2693 8.62614 13.2794 9.95373C11.2895 11.2813 9.73818 13.1694 8.82173 15.379C7.90528 17.5886 7.66492 20.0204 8.13106 22.3667C8.59719 24.7129 9.74887 26.8681 11.4403 28.5596C13.1318 30.2511 15.2871 31.4028 17.6333 31.8689C19.9796 32.3351 22.4114 32.0947 24.621 31.1782C26.8306 30.2618 28.7186 28.7105 30.0462 26.7206C31.3738 24.7307 32.0813 22.3917 32.0791 19.9996C32.0791 18.4134 31.7666 16.8427 31.1596 15.3773C30.5526 13.9118 29.6629 12.5803 28.5413 11.4587C27.4197 10.3371 26.0882 9.44734 24.6227 8.84034C23.1573 8.23333 21.5866 7.9209 20.0004 7.9209ZM20.0004 25.9658L14.0454 19.9996L20.0004 14.0445L25.9555 19.9996L20.0004 25.9658Z" fill="#ED1C24"/>
</svg>
