<svg width="1em" height="1em" viewBox="0 0 40 40" fill="none" xmlns="http://www.w3.org/2000/svg">
    <rect width="1em" height="1em" fill="#476BF0"/>
    <path fill-rule="evenodd" clip-rule="evenodd" d="M5 20.0081C5 11.7277 11.7301 5 20.0102 5C28.2715 5 35 11.7277 35 20.0081C35 28.2715 28.2715 35 20.0102 35C11.7301 35 5 28.2715 5 20.0081ZM5.74992 20.0081C5.74992 27.8581 12.1468 34.2497 20.0102 34.2497C27.8577 34.2497 34.2501 27.8564 34.2501 20.0081C34.2501 12.1452 27.8601 5.75033 20.0102 5.75033C12.1444 5.75033 5.74992 12.1419 5.74992 20.0081ZM24.2664 10.5778C21.8925 9.51904 17.4691 9.41406 13.8456 11.0278C14.1353 10.8203 14.4377 10.6331 14.7514 10.4655C14.9426 10.363 15.1383 10.2677 15.3373 10.1807C16.4783 9.64925 18.3183 9.13411 20.6116 9.13411C20.7198 9.13411 20.828 9.13493 20.9367 9.13737C22.8975 9.17236 25.2222 9.84945 26.6431 11.2549C26.8848 11.5495 27.0247 11.8433 27.0764 12.0703C28.2039 12.6432 28.8623 13.1803 29.2257 13.8053C29.3831 14.1341 29.4348 14.48 29.364 14.8796C29.7339 15.0871 30.0545 15.3719 30.304 15.7153C30.4574 15.9749 30.579 16.2671 30.6148 16.5316C30.6657 16.8758 30.6999 17.2746 30.3357 17.7441C30.7174 17.9354 31.0282 18.4709 31.0657 18.6987C31.2565 19.5459 30.6999 20.3792 29.9898 21.0229C29.4584 21.4868 28.5189 22.0076 27.5208 22.4235C26.9535 22.6595 26.3672 22.8621 25.8264 23.0005C23.7427 23.5278 21.8209 23.8387 20.1388 24.1113C19.4438 24.2244 18.7895 24.3302 18.1816 24.4417C18.7358 24.5744 19.4059 24.7331 20.2889 24.8397C20.8968 24.9137 21.6056 24.9626 22.4475 24.9626C26.8673 24.9626 30.7699 22.8784 30.7699 22.8784C30.7699 22.8784 30.684 23.1405 30.5957 23.3838C27.7873 25.083 23.3317 25.7935 21.4225 25.7064C19.4975 25.6185 17.8682 25.3247 16.2724 24.8381C15.7849 24.9756 15.3048 25.1375 14.834 25.3247C17.2632 26.4347 19.0999 26.6789 21.1641 26.8335C23.278 26.9914 26.783 26.486 29.7282 25.4134C29.6623 25.4801 29.6118 25.5623 29.5626 25.6429C29.5085 25.7308 29.4552 25.8179 29.3831 25.8813C27.8739 26.6789 24.6851 27.4772 23.0717 27.5464C21.475 27.6164 19.5333 27.5464 17.8333 27.2331C16.3765 26.9401 15.1782 26.486 13.9307 25.9334C13.7073 26.1043 13.6031 26.3151 13.549 26.5584C18.4249 29.1081 22.9655 29.1585 28.1531 27.5464L27.6831 27.998C21.9775 30.3231 17.5208 29.4198 14.0682 27.7539C13.949 27.7018 13.8098 27.6489 13.7073 27.5806C14.0373 28.1364 16.6707 30.0618 19.6191 30.3052C20.6852 30.3963 21.875 30.3434 22.9777 30.188C23.9754 30.0472 24.9023 29.8218 25.6022 29.5426L24.7355 29.9927C24.0238 30.3402 22.1342 31.1401 19.4967 30.9652C15.9774 30.721 13.9998 29.1593 13.1148 28.3455C12.699 27.9614 12.5098 27.5293 12.3873 26.9914C11.5889 26.5747 11.0864 26.1393 10.6722 25.481C10.4289 25.1172 10.4789 24.6842 10.5306 24.3172L10.6388 24.0088C10.2547 23.728 9.85636 23.4334 9.70052 23.1405C9.3514 22.5155 9.56299 21.9767 9.80469 21.5601C9.72778 21.4714 9.65332 21.3826 9.58577 21.2939C9.4694 21.1401 9.37337 20.9863 9.32088 20.8325C9.21549 20.555 9.19922 20.2743 9.23055 19.9634C9.30135 19.4442 9.57886 18.96 9.94303 18.5417C10.7048 17.6562 11.9214 16.9629 13.9823 16.2866C15.5538 15.7617 16.3977 15.5802 17.406 15.3638C17.701 15.3003 18.0098 15.2344 18.3549 15.1554C20.1408 14.742 22.2742 14.6045 24.0588 13.9795C19.0816 13.1128 13.9148 13.9095 9.70052 16.8042L9.97721 15.9896C13.7573 13.527 17.9374 12.0703 25.0122 13.3024C25.3939 13.0762 25.6189 12.8499 25.7247 12.3999C23.9547 11.7586 22.0308 11.5332 19.5516 11.5666C17.3307 11.6374 13.3232 12.4666 11.1764 13.7378L11.8323 12.9207C13.3232 12.0329 17.2249 10.8724 20.1583 10.8203C22.2201 10.769 23.278 10.8895 25.7414 11.5495C25.5139 11.1353 25.0122 10.9253 24.2664 10.5778ZM28.0465 14.1878C27.9789 13.702 27.4239 13.2332 26.9373 12.9207C26.8921 13.0786 26.768 13.2576 26.6386 13.4163C26.5686 13.5026 26.497 13.5824 26.4355 13.6499C26.9731 13.7899 27.5281 13.995 28.0465 14.1878ZM25.673 14.3424C25.3239 14.6208 24.9272 14.8625 24.3355 15.0903C25.3088 15.2604 26.0372 15.5387 26.8673 15.7658C26.8758 15.7699 26.8856 15.7715 26.8949 15.7707C27.0756 15.7707 27.6697 15.2214 27.7722 15.0708C27.4508 14.93 27.0898 14.7884 26.7029 14.6558C26.3753 14.5435 26.0295 14.4368 25.673 14.3424ZM29.3831 16.8929C29.6073 16.4591 29.469 16.1816 29.0023 15.7821C28.8106 16.0099 28.6023 16.1987 28.3773 16.3721C28.5409 16.4502 28.6979 16.5177 28.8497 16.5894C29.0348 16.6764 29.2122 16.7692 29.3831 16.8929ZM21.5808 15.9749C19.2916 16.2524 16.7582 16.7358 14.5915 17.3787L14.4759 17.4137C13.4005 17.7409 9.3339 18.9746 10.5688 20.6755L10.5835 20.6592C10.7015 20.5257 11.5588 19.5516 14.2607 18.7663C16.1613 18.208 18.1099 17.8532 20.0891 17.4927C21.8669 17.1688 23.6694 16.84 25.483 16.3558C24.4035 16.0685 23.6678 15.8968 22.7474 15.896C22.3954 15.896 22.0166 15.9212 21.5808 15.9749ZM24.0601 18.0737C22.8292 18.3854 19.845 18.8192 16.6382 19.5125C15.6315 19.738 12.8731 20.3792 11.5206 21.5251C11.7375 21.7041 11.91 21.8034 12.0947 21.9002C12.2343 21.9735 12.3812 22.0459 12.5598 22.1501C13.1148 21.7847 13.879 21.438 15.0081 21.1418C16.7891 20.6689 18.1734 20.4411 19.7416 20.1831L20.21 20.1058C21.9617 19.8405 25.273 19.1471 27.0931 18.488C27.5118 18.3464 27.9041 18.1706 28.2381 17.9663C28.3899 17.8735 28.5295 17.7751 28.654 17.6717C28.5323 17.535 27.3531 16.9629 27.3181 17.0158C26.5922 17.3617 25.5513 17.7075 24.0601 18.0737ZM25.2913 20.4329C21.5808 21.438 18.8908 21.5747 15.8382 22.325C15.4867 22.4137 15.1298 22.5163 14.7811 22.6335C14.5272 22.7181 14.2773 22.8109 14.0373 22.9126C14.6073 23.208 15.2323 23.4692 15.8557 23.7126C17.1041 23.348 17.6965 23.1917 19.4967 22.8971L20.4964 22.7173C21.4498 22.5431 22.7812 22.2965 23.8322 22.0833C26.5922 21.4909 30.6323 20.2067 29.5573 18.5417C29.5036 18.5872 29.4499 18.6287 29.3962 18.6702C29.3282 18.724 29.2607 18.7777 29.1931 18.8371C28.3773 19.458 27.0764 19.9634 25.2913 20.4329ZM11.2089 23.208C11.3289 23.0876 11.4864 22.9826 11.6081 22.8784C11.3289 22.7344 11.1377 22.6123 10.9184 22.4723L10.7922 22.3918C10.6531 22.7075 10.933 23.0501 11.2089 23.208ZM14.4332 24.2147C13.9307 23.9893 13.394 23.7655 12.8731 23.5221C12.6306 23.6784 12.4064 23.833 12.2323 23.9893C12.6481 24.2326 13.0481 24.4564 13.4648 24.6851C13.7712 24.4963 14.0955 24.3384 14.4332 24.2147ZM12.4064 25.8293C12.4565 25.6543 12.5448 25.5168 12.6664 25.3434C12.5293 25.2702 12.3926 25.1978 12.2559 25.1221C12.0972 25.0334 11.9393 24.9414 11.7814 24.8381C11.7623 25.1693 11.9722 25.4639 12.4064 25.8293Z" fill="white"/>
</svg>
