<svg width="1em" height="1em" viewBox="0 0 40 40" fill="none" xmlns="http://www.w3.org/2000/svg">
    <rect width="1em" height="1em" fill="#E1192F"/>
    <path fill-rule="evenodd" clip-rule="evenodd" d="M15.8776 13C16.5688 13 17.1665 13.1336 17.6774 13.3974C18.185 13.6612 18.579 14.0352 18.8562 14.5127C19.1334 14.9902 19.2703 15.5579 19.2703 16.2124C19.2703 16.8602 19.1334 17.4279 18.8562 17.9087C18.579 18.3929 18.185 18.7669 17.6774 19.0307C17.1665 19.2945 16.5688 19.4281 15.8776 19.4281C15.1863 19.4281 14.5853 19.2945 14.0743 19.0307C13.5634 18.7636 13.1694 18.3896 12.8956 17.9087C12.6218 17.4279 12.4848 16.8602 12.4848 16.2124C12.4848 15.5579 12.6218 14.9902 12.8956 14.5127C13.1694 14.0352 13.5634 13.6612 14.0743 13.3974C14.5853 13.1336 15.1863 13 15.8776 13ZM16.8526 17.9321C17.1164 17.7818 17.3168 17.5615 17.447 17.2743C17.5772 16.9838 17.644 16.6331 17.6474 16.2157C17.6474 15.7983 17.5806 15.4477 17.4504 15.1605C17.3201 14.8733 17.1198 14.6529 16.856 14.5027C16.5888 14.3524 16.2649 14.2756 15.8776 14.2756C15.4902 14.2756 15.1696 14.3491 14.9092 14.4993C14.6487 14.6496 14.4517 14.87 14.3181 15.1572C14.1845 15.4477 14.1178 15.7983 14.1178 16.2157C14.1178 16.6331 14.1845 16.9871 14.3181 17.2743C14.4517 17.5648 14.6454 17.7818 14.9058 17.9321C15.1629 18.0824 15.4869 18.1558 15.8742 18.1558C16.2616 18.1558 16.5888 18.0824 16.8526 17.9321ZM12.2778 13.0866H10.5281L9.21573 15.1002L7.83327 13.0866H6.01002L8.19057 16.1154L6 19.3378H7.7598L9.09217 17.2641L10.5014 19.3378H12.3213L10.1073 16.2055L12.2778 13.0866ZM9.58973 23.0851C10.0005 23.0851 10.3611 23.1652 10.675 23.3255C10.9855 23.4858 11.2293 23.7128 11.4063 24.0034C11.5833 24.2939 11.6701 24.6412 11.6701 25.0385C11.6701 25.4393 11.5833 25.7865 11.4063 26.0804C11.2293 26.3743 10.9889 26.6047 10.6783 26.7683C10.3678 26.9319 10.0038 27.0187 9.57971 27.0187H6V20.7676H11.2059V22.0399H7.54609V23.0851H9.58973ZM9.38603 25.7799C9.61644 25.7799 9.79676 25.7164 9.92031 25.5929C10.0439 25.4693 10.1073 25.289 10.1073 25.0486C10.1073 24.8883 10.0806 24.7547 10.0238 24.6478C9.96707 24.541 9.88359 24.4575 9.77339 24.3974C9.66319 24.3373 9.5363 24.3072 9.38603 24.3072H7.54609V25.7799H9.38603ZM11.9839 27.0187L14.692 20.7676H16.3083L19.0197 27.0187H17.3501L16.8425 25.7632H14.0943L13.5834 27.0187H11.9839ZM15.4768 22.3938L14.6019 24.531H16.345L15.4768 22.3938ZM24.5062 23.1585H21.5243V20.7676H19.9348V27.0187H21.5243V24.4442H24.5062V27.0187H26.0891V20.7676H24.5062V23.1585ZM30.8709 23.6895L33.9397 27.0187H31.9127L29.3148 24.2004V27.0187H27.7687V20.7676H29.3148V23.4457L31.9127 20.7676H33.8261L30.8709 23.6895ZM22.6397 16.0686L21.117 13.0866H19.3338L21.7882 17.6514L20.93 19.3378H22.6364L25.7987 13.0866H24.109L22.6397 16.0686ZM30.3001 16.7899L32.2936 13.0866H34V19.3378H32.5608V15.2672L30.9713 18.2325H29.5955L27.9726 15.2872V19.3378H26.5334V13.0866H28.2665L30.3001 16.7899Z" fill="white"/>
</svg>
