<svg width="1em" height="1em" viewBox="0 0 40 40" fill="none" xmlns="http://www.w3.org/2000/svg">
    <rect width="1em" height="1em" fill="#00BEF0"/>
    <path d="M20 6C12.2581 6 6 12.2581 6 20C6 27.7419 12.2581 34 20 34C27.7419 34 34 27.7419 34 20C34 12.2581 27.7419 6 20 6ZM18.0645 25.9355L17.0323 28.9677C13.1613 27.6774 10.5806 24 10.5806 19.871C10.5806 15.7419 13.1613 12.129 17.0968 10.7742L18.129 13.8065C15.5484 14.6452 13.871 17.0968 13.871 19.8065C13.7419 22.6452 15.4839 25.0968 18.0645 25.9355ZM22.8387 29.0323L21.871 25.9355C24.5161 25.0968 26.2581 22.6452 26.2581 19.871C26.2581 17.0968 24.5161 14.7097 21.9355 13.871L22.9677 10.7742C26.9032 12.0645 29.5484 15.7419 29.5484 19.871C29.5484 24.129 26.8387 27.8065 22.8387 29.0323Z" fill="white"/>
</svg>
