<svg width="1em" height="1em" viewBox="0 0 40 40" fill="none" xmlns="http://www.w3.org/2000/svg">
    <rect width="1em" height="1em" fill="#222222"/>
    <path fill-rule="evenodd" clip-rule="evenodd" d="M7 20.5646C7 13.6312 12.811 8.0082 19.9821 8V12.5402C15.4024 12.5464 11.6957 16.1372 11.6957 20.5646C11.6957 24.9921 15.4129 28.5931 20.0011 28.5931C24.5892 28.5931 28.3023 25.0331 28.3023 20.5359L33 20.54C33 27.5063 27.1827 33.1333 20.0011 33.1333C12.8195 33.1333 7 27.5042 7 20.5646ZM14.2635 20.5644C14.2635 17.4863 16.8485 14.9907 20.0303 14.9907C23.212 14.9907 25.7992 17.4863 25.7992 20.5644C25.7992 23.6425 23.2141 26.1382 20.0303 26.1382C16.8464 26.1382 14.2635 23.6447 14.2635 20.5644ZM27.3341 10.3094C25.5102 10.3094 24.03 11.7387 24.03 13.5044C24.03 15.268 25.5081 16.7014 27.3341 16.7014C29.1601 16.7014 30.6402 15.27 30.6402 13.5044C30.6402 11.7387 29.1579 10.3094 27.3341 10.3094Z" fill="white"/>
</svg>
