<svg width="1em" height="1em" viewBox="0 0 40 40" fill="none" xmlns="http://www.w3.org/2000/svg">
    <rect width="1em" height="1em" fill="#FF8C00"/>
    <path fill-rule="evenodd" clip-rule="evenodd" d="M26.2242 29.622C28.7173 30.1668 31.2186 30.8109 33.9221 34.1951C34.1622 34.4955 33.7955 34.7964 33.52 34.5538C30.7687 32.1382 28.283 31.3594 25.9921 31.3594C23.4418 31.3594 21.7044 31.697 19.9534 31.697C13.3518 31.697 8 26.3917 8 19.8479C8 13.3053 13.3518 8 19.9534 8C26.5555 8 31.9067 13.3047 31.9067 19.8479C31.9099 21.9919 31.3246 24.0957 30.2146 25.93C30.1792 25.9877 30.0905 25.9673 30.0818 25.9009C29.6717 22.9895 27.8766 21.3849 25.2649 20.917C25.0384 20.876 24.9962 20.7377 25.2959 20.7122C26.0926 20.644 27.2281 20.6558 27.8052 20.7588C27.8399 20.4603 27.8548 20.1556 27.8548 19.8479C27.8548 15.523 24.3174 12.0159 19.9534 12.0159C15.5894 12.0159 12.0519 15.5224 12.0519 19.8479C12.0519 24.174 15.5894 27.6805 19.9534 27.6805C20.0775 27.6805 20.2016 27.6817 20.3244 27.6761C20.2033 26.9771 20.1536 26.2675 20.1761 25.5584C20.1954 25.0806 20.2934 25.0148 20.5112 25.3865C21.6039 27.2542 23.1731 28.9562 26.2235 29.622H26.2242ZM26.0213 26.715C26.3129 26.715 26.6188 26.8366 26.8819 27.0575C27.4137 27.503 27.5756 28.0329 27.2939 28.4071C27.1375 28.6119 26.8844 28.7248 26.5803 28.7248C26.2825 28.7248 25.9784 28.615 25.7675 28.4331C25.2835 28.0137 25.1414 27.3349 25.4572 26.9489C25.5807 26.7981 25.7811 26.715 26.0213 26.715ZM28.6714 24.7765C29.1151 24.9428 29.2894 25.6154 29.3354 25.9257C29.4135 26.4451 29.2485 26.6597 29.0822 26.6597C28.901 26.6597 28.6727 26.4494 28.4046 26.0343C28.1396 25.6248 28.0429 25.1532 28.1738 24.9161C28.2606 24.7592 28.4425 24.6903 28.6714 24.7765Z" fill="white"/>
</svg>
