<svg width="1em" height="1em" viewBox="0 0 40 40" fill="none" xmlns="http://www.w3.org/2000/svg">
    <rect width="1em" height="1em" fill="#F10D30"/>
    <path fill-rule="evenodd" clip-rule="evenodd" d="M27.75 13.875C27.75 18.2244 24.2244 21.75 19.875 21.75C15.5256 21.75 12 18.2244 12 13.875C12 9.52563 15.5256 6 19.875 6C24.2244 6 27.75 9.52563 27.75 13.875ZM19.875 32.25C15.5218 32.25 12 32.5363 12 32.8225V33.4275C12 33.7137 15.5218 34 19.875 34C24.2282 34 27.75 33.7137 27.75 33.4275V32.8225C27.7744 32.5363 24.2282 32.25 19.875 32.25ZM12 26.5625V27.4375C12 28.8876 15.5256 30.0625 19.875 30.0625C24.2244 30.0625 27.75 28.8876 27.75 27.4375V26.5625C27.75 25.1124 24.2244 23.9375 19.875 23.9375C15.5256 23.9375 12 25.1124 12 26.5625Z" fill="white"/>
</svg>
