<svg width="1em" height="1em" viewBox="0 0 40 40" fill="none" xmlns="http://www.w3.org/2000/svg">
    <rect width="1em" height="1em" fill="#21A038"/>
    <path fill-rule="evenodd" clip-rule="evenodd" d="M19.8005 6.00001H19.7979C16.2367 5.99561 12.7595 7.42624 10.215 9.91373C6.15915 13.8617 4.88411 20.1118 7.03076 25.3609C8.3707 28.6376 10.9595 31.3491 14.192 32.8031C17.6259 34.3476 21.6112 34.4009 25.0841 32.9422C28.355 31.5684 31.0071 28.9318 32.4297 25.6825C33.5506 23.1226 33.8822 20.2418 33.3969 17.492L30.4231 19.7131C30.4231 21.3203 30.1584 22.8892 29.5097 24.3685C28.4144 26.8657 26.3769 28.8942 23.8628 29.9517C21.1903 31.0758 18.1327 31.0349 15.4883 29.8439C13.0011 28.7237 11.0146 26.6431 9.98154 24.1204C8.87422 21.4164 8.91321 18.3084 10.0864 15.6334C11.1809 13.1379 13.2174 11.1106 15.7322 10.0526C19.025 8.66734 22.8401 9.06398 25.7872 11.113L28.4735 9.10629C26.0446 7.11299 22.9414 5.996 19.8005 6.00001ZM30.7307 11.4419C31.3871 12.3019 31.9427 13.2362 32.3864 14.226L19.8008 23.6284L14.5409 20.2869V16.2668L19.8008 19.6084L30.7307 11.4419Z" fill="white"/>
</svg>
