<svg width="1em" height="1em" viewBox="0 0 40 40" fill="none" xmlns="http://www.w3.org/2000/svg">
    <rect width="1em" height="1em" fill="#E40134"/>
    <path d="M28.9077 8.4943C21.1275 10.1468 15.3241 14.2981 15.9452 17.7652C16.1395 18.8475 16.938 19.7348 18.1784 20.3936L18.1739 20.4126L18.1544 20.3918L18.15 20.4126C14.8104 19.8487 12.3244 18.3 11.5614 15.9304C10.7282 13.3392 11.407 10.4627 13.6464 8H8V31.9867C9.00701 31.876 10.0353 31.7279 11.0929 31.5025C18.8722 29.8493 24.6765 25.6988 24.0545 22.2316C23.8602 21.15 23.0626 20.2621 21.8196 19.6025L21.8258 19.5835L21.8453 19.6057L21.8497 19.5842C25.1893 20.1488 27.6753 21.6974 28.4383 24.0664C29.2732 26.6588 28.5918 29.5354 26.3507 32H32.0006V8.00949C30.9936 8.12089 29.9653 8.26961 28.9077 8.4943Z" fill="white"/>
</svg>
