<svg width="1em" height="1em" viewBox="0 0 40 40" fill="none" xmlns="http://www.w3.org/2000/svg">
    <rect width="1em" height="1em" fill="black"/>
    <path d="M20.5731 13.2281C20.5848 13.2164 20.5848 13.2047 20.5965 13.193C20.8187 12.8772 20.7251 12.6433 20.5731 12.5146C20.4795 12.4327 18.3158 11.1228 18.3158 11.1228C18.1638 11.0175 18.0585 10.8421 18.0585 10.6316C18.0585 10.3158 18.2456 10.0702 18.6901 9.94152C20.0819 9.55555 24.9941 9.35672 26.655 9.35672C27.2281 9.35672 28.2339 9.35672 29.1228 9.38012L29.0877 9.34503C26.6433 7.26316 23.462 6 20 6C12.269 6 6 12.269 6 20C6 23.4035 7.21638 26.5146 9.22807 28.9356C10.9825 26.4093 15.3333 20.1754 16.2807 18.9006C17.3801 17.4269 19.883 14.1637 20.3041 13.614L20.3275 13.5907L20.5731 13.2281ZM11.462 31.0994C13.8246 32.924 16.7836 34 20 34C27.731 34 34 27.731 34 20C34 17.6608 33.4269 15.4503 32.4094 13.5205C32.8889 13.0526 33.4503 12.3158 33.076 11.4035C32.9591 11.1345 32.4211 10.503 32.2807 10.3509L32.3041 10.4094C32.6433 11.4386 31.9766 12.0819 31.4854 12.5146C31.2164 12.7603 27.6608 16.1053 23.4971 19.7544C19.8246 22.9708 15.7076 26.2339 13.3333 28.0234C9.98832 30.5263 9.33335 30.8889 9.33335 30.8889C9.23978 30.9357 9.09943 30.9825 8.99417 30.9825C8.79534 30.9825 8.6082 30.8889 8.50294 30.7486C8.47955 30.7953 8.47955 30.8305 8.49124 30.8538C8.85382 31.4386 9.45031 32.1053 9.78948 32.1053C9.89475 32.1053 10.0468 32.0585 10.1404 32.0117C10.1287 32 10.3977 31.8597 11.462 31.0994Z" fill="#E2001A"/>
    <path d="M20.5962 13.1927C20.8068 12.8769 20.7249 12.643 20.5728 12.5143C20.4792 12.4325 18.3155 11.1225 18.3155 11.1225C18.1635 11.0173 18.0582 10.8418 18.0582 10.6313C18.0582 10.3038 18.257 10.0699 18.6898 9.94124C20.0816 9.55527 24.9939 9.35645 26.6547 9.35645C27.4384 9.35645 29.0056 9.35645 30.0231 9.41492C31.1693 9.4851 32.0465 9.73071 32.2687 10.2804C32.6898 11.3681 31.988 12.0465 31.4851 12.5026C31.2161 12.7483 27.6722 16.0933 23.4968 19.7424C19.8243 22.9588 15.7073 26.222 13.3331 28.0114C9.98803 30.5144 9.33306 30.8769 9.33306 30.8769C9.2395 30.9237 9.09915 30.9705 8.98218 30.9705C8.63131 30.9705 8.3623 30.7015 8.3623 30.3623C8.3623 30.2336 8.39739 30.105 8.46756 30.0114C8.46756 30.0114 15.064 20.5143 16.2571 18.9003C17.4618 17.298 20.3389 13.5319 20.3389 13.5319C20.3389 13.5319 20.3857 13.4968 20.5962 13.1927Z" fill="#FEFEFE"/>
</svg>
