<svg width="1em" height="1em" viewBox="0 0 40 40" fill="none" xmlns="http://www.w3.org/2000/svg">
    <rect width="1em" height="1em" fill="#3B175C"/>
    <path fill-rule="evenodd" clip-rule="evenodd" d="M20.0046 5C20.3909 5 20.8018 5.016 21.2567 5.05258V7.83578C21.2567 20.099 21.7242 25.4002 23.537 33.5749C21.2207 34.1544 18.7638 34.1544 16.4516 33.5704C18.2764 25.3362 18.7473 20.035 18.7473 7.83578V5.05258C19.2068 5.016 19.6177 5 20.0046 5ZM34 20.5425C34 15.7727 31.402 11.5791 27.4986 9.19023L27.5512 12.4283C29.8715 14.4229 31.3414 17.3238 31.3414 20.5425C31.3414 22.0124 31.0271 23.4148 30.4756 24.6961C28.7959 23.1005 27.5992 21.2237 26.8546 19.0074C25.9562 16.3248 25.7464 13.3873 25.7144 9.7983L25.7184 8.25526L25.3892 8.1181L25.0875 8.00151C24.4771 7.77291 23.8485 7.58432 23.209 7.44144L23.213 9.79373C23.2975 22.1861 25.4447 27.2942 28.6388 31.1335C31.9055 28.668 34 24.8413 34 20.5425ZM16.791 9.79602L16.795 7.44373C15.9332 7.63689 15.0914 7.91121 14.2856 8.25754L14.2896 9.80059C14.2536 13.3862 14.0478 16.3271 13.1494 19.0097C12.4088 21.226 11.2081 23.0994 9.52843 24.6984C8.97694 23.4171 8.66261 22.0147 8.66261 20.5448C8.66261 17.3215 10.1285 14.4252 12.4528 12.4306L12.5054 9.19251C8.59803 11.5768 6 15.7705 6 20.5448C6 24.8436 8.09854 28.6703 11.3612 31.1358C14.5633 27.301 16.7065 22.1884 16.791 9.79602Z" fill="white"/>
</svg>
