<svg width="1em" height="1em" viewBox="0 0 40 40" fill="none" xmlns="http://www.w3.org/2000/svg">
    <rect width="1em" height="1em" fill="#003870"/>
    <path fill-rule="evenodd" clip-rule="evenodd" d="M8 8.78C8 8.66 8 8.6 8.06 8.48C8.12 8.36 8.18 8.3 8.24 8.24C8.27 8.21 8.315 8.18 8.36 8.15C8.405 8.12 8.45 8.09 8.48 8.06C8.54 8 8.66 8 8.72 8H31.22C31.4 8 31.64 8.06 31.76 8.24C31.7806 8.27088 31.8012 8.3 31.8212 8.32826C31.9176 8.46471 32 8.58118 32 8.78V31.22C32 31.34 32 31.4 31.94 31.52C31.88 31.64 31.82 31.7 31.76 31.76L31.76 31.76C31.73 31.79 31.685 31.82 31.64 31.85L31.64 31.85L31.64 31.85C31.595 31.88 31.55 31.91 31.52 31.94C31.46 32 31.34 32 31.22 32H8.72C8.6 32 8.54 32 8.42 31.94C8.30001 31.88 8.24001 31.82 8.18001 31.76L8.18 31.76C8.15 31.73 8.12 31.685 8.09 31.64C8.06 31.595 8.03 31.55 8 31.52V31.22V8.78ZM18.26 12.6799C18.32 12.6799 18.38 12.6199 18.32 12.5599L18.2 12.1999C18.2 12.1399 18.14 12.1399 18.14 12.1399C18.11 12.1399 18.095 12.1249 18.08 12.1099C18.065 12.0949 18.05 12.0799 18.02 12.0799H11.6C11.54 12.0799 11.48 12.1399 11.54 12.1999L11.72 12.5599C11.72 12.6199 11.78 12.6199 11.78 12.6199C11.78 12.6199 11.84 12.6799 11.9 12.6799H18.26ZM18.8 13.3999C18.8 13.3628 18.7771 13.3486 18.7455 13.3291C18.7259 13.317 18.703 13.3028 18.68 13.2799C18.6455 13.2454 18.6309 13.2307 18.6132 13.2245C18.6002 13.2199 18.5855 13.2199 18.56 13.2199H12.2C12.1869 13.233 12.1737 13.2433 12.1618 13.2526L12.1618 13.2526C12.1195 13.2857 12.0932 13.3062 12.14 13.3999L12.32 13.7599C12.32 13.8199 12.38 13.8199 12.38 13.8199C12.41 13.8199 12.425 13.8349 12.44 13.8499C12.455 13.8649 12.47 13.8799 12.5 13.8799H18.86C18.92 13.8799 18.98 13.8199 18.92 13.7599L18.8 13.3999ZM19.4 14.5999C19.4 14.5399 19.34 14.5399 19.34 14.5399C19.31 14.5399 19.295 14.5249 19.28 14.5099C19.265 14.4949 19.25 14.4799 19.22 14.4799H12.8C12.74 14.4799 12.68 14.5399 12.74 14.5999L12.92 14.9599C12.92 15.0199 12.98 15.0199 12.98 15.0199C12.98 15.0199 13.04 15.0799 13.1 15.0799H19.4C19.46 15.0799 19.52 15.0199 19.46 14.9599L19.4 14.5999ZM20 15.7999C20 15.7399 19.94 15.7399 19.94 15.7399C19.91 15.7399 19.895 15.7249 19.88 15.7099C19.865 15.6949 19.85 15.6799 19.82 15.6799H13.4C13.34 15.6799 13.28 15.7399 13.34 15.7999L13.52 16.1599C13.52 16.2199 13.58 16.2199 13.58 16.2199C13.58 16.2199 13.64 16.2799 13.7 16.2799H20C20.06 16.2799 20.12 16.2199 20.06 16.1599L20 15.7999ZM20.6 17.0599C20.6 16.9999 20.54 16.9999 20.54 16.9999C20.51 16.9999 20.495 16.9849 20.48 16.9699C20.465 16.9549 20.45 16.9399 20.42 16.9399H14C13.94 16.9399 13.88 16.9999 13.94 17.0599L14.12 17.4199C14.12 17.4799 14.18 17.4799 14.18 17.4799C14.21 17.4799 14.225 17.4949 14.24 17.5099C14.255 17.5249 14.27 17.5399 14.3 17.5399H20.6C20.66 17.5399 20.72 17.4799 20.66 17.4199L20.6 17.0599ZM21.2 18.2599C21.2 18.1999 21.14 18.1999 21.14 18.1999C21.11 18.1999 21.095 18.1849 21.08 18.1699C21.065 18.1549 21.05 18.1399 21.02 18.1399H14.6C14.54 18.1399 14.48 18.1999 14.54 18.2599L14.72 18.6199C14.72 18.6799 14.78 18.6799 14.78 18.6799C14.81 18.6799 14.825 18.6949 14.84 18.7099C14.855 18.7249 14.87 18.7399 14.9 18.7399H21.2C21.26 18.7399 21.32 18.6799 21.26 18.6199L21.2 18.2599ZM21.8 19.4599C21.8 19.3999 21.74 19.3999 21.74 19.3999C21.71 19.3999 21.695 19.3849 21.68 19.3699C21.665 19.3549 21.65 19.3399 21.62 19.3399H15.14C15.08 19.3399 15.02 19.3999 15.08 19.4599L15.26 19.8199C15.26 19.8799 15.32 19.8799 15.32 19.8799C15.35 19.8799 15.365 19.8949 15.38 19.9099C15.395 19.9249 15.41 19.9399 15.44 19.9399H21.8C21.86 19.9399 21.92 19.8799 21.86 19.8199L21.8 19.4599ZM19.9401 11.4201C19.9401 11.4801 19.9401 11.4801 19.8801 11.4801L10.0401 11.5401C9.98006 11.5401 9.92006 11.4801 9.92006 11.4801C9.86006 11.4201 9.86006 11.4201 9.86006 11.3601V11.0001C9.86006 10.9401 9.92006 10.8801 9.92006 10.8801C9.98006 10.8201 9.98006 10.8201 10.0401 10.8201H19.8201C19.8801 10.8201 19.9401 10.8801 19.9401 10.8801C19.9746 10.9146 19.9892 10.9293 19.9955 10.9469C20.0001 10.96 20.0001 10.9746 20.0001 11.0001V11.3001C20.0001 11.3601 19.9401 11.4201 19.9401 11.4201ZM15.6201 20.7801C15.5601 20.7201 15.6201 20.6601 15.6801 20.6601V20.6001H29.4801C29.5401 20.6001 29.6001 20.6601 29.6001 20.6601C29.6346 20.6946 29.6492 20.7093 29.6555 20.7269C29.6601 20.74 29.6601 20.7546 29.6601 20.7801V21.1401C29.6601 21.2001 29.6001 21.2601 29.6001 21.2601C29.5401 21.3201 29.5401 21.3201 29.4801 21.3201H23.6001C23.5701 21.3201 23.5551 21.3351 23.5401 21.3501C23.5251 21.3651 23.5101 21.3801 23.4801 21.3801C23.4801 21.3801 23.4201 21.3801 23.4201 21.4401L19.7601 29.1201V29.1801H19.6401V29.1201L15.6201 20.7801ZM24.4401 10.8201H29.5401C29.5771 10.8201 29.6142 10.843 29.6655 10.8747C29.6971 10.8943 29.7342 10.9172 29.7801 10.9401V11.2401C29.7801 11.3001 29.7201 11.3601 29.7201 11.3601C29.6601 11.4201 29.6601 11.4201 29.6001 11.4201H29.3601C29.0001 11.4201 28.7001 11.4801 28.4001 11.6001C28.1001 11.7801 27.9201 12.0201 27.8001 12.3201L24.0201 20.0001C24.0201 20.0001 24.0201 20.0601 23.9601 20.0601C23.9256 20.0946 23.9109 20.1093 23.8933 20.1155C23.8802 20.1201 23.8656 20.1201 23.8401 20.1201H22.7001C22.6401 20.1201 22.6401 20.0601 22.6401 20.0001L26.0001 12.8001C26.4201 11.5401 25.3401 11.5401 25.1601 11.5401H24.4401C24.3801 11.5401 24.3201 11.4801 24.3201 11.4801C24.2601 11.4201 24.2601 11.4201 24.2601 11.3601V11.0001C24.2601 10.9401 24.3201 10.8801 24.3201 10.8801C24.3801 10.8201 24.3801 10.8201 24.4401 10.8201Z" fill="white"/>
    <path d="M28.1601 20.06C28.4601 20.06 28.7601 19.94 29.0001 19.82C29.2401 19.64 29.4201 19.4 29.5401 19.16C29.6601 18.86 29.6601 18.56 29.6001 18.26C29.5401 17.96 29.4201 17.66 29.1801 17.48C28.9401 17.24 28.7001 17.12 28.4001 17.06C28.1001 17 27.8001 17.06 27.5001 17.12C27.2001 17.24 26.9601 17.42 26.8401 17.66C26.6601 17.9 26.6001 18.2 26.6001 18.5C26.6001 18.92 26.7801 19.28 27.0801 19.58C27.3801 19.88 27.7401 20.06 28.1601 20.06Z" fill="#ED1B34"/>
</svg>
