<svg width="1em" height="1em" viewBox="0 0 40 40" fill="none" xmlns="http://www.w3.org/2000/svg">
    <rect y="0.5" width="1em" height="1em" fill="black"/>
    <path fill-rule="evenodd" clip-rule="evenodd" d="M34 20.5C34 28.232 27.732 34.5 20 34.5C12.268 34.5 6 28.232 6 20.5C6 12.768 12.268 6.5 20 6.5C27.732 6.5 34 12.768 34 20.5ZM21.9926 29.2889H25.0659V29.2837H25.0451V11.709H20.6027C16.1421 11.709 13.7859 14.0081 13.7859 17.388C13.7859 20.0924 15.0796 21.6953 17.3787 23.3371L13.3806 29.2863H16.6851L21.1275 22.6227L19.5817 21.5809C17.7061 20.3262 16.7994 19.3416 16.7994 17.2165C16.7994 15.3434 18.1139 14.0886 20.6235 14.0886H21.9926V29.2889Z" fill="white"/>
</svg>
