<svg width="1em" height="1em" viewBox="0 0 24 24" fill="none" xmlns="http://www.w3.org/2000/svg">
    <path d="M3.34898 2.85556C3.12793 3.08117 3 3.43243 3 3.88733V20.1131C3 20.568 3.12793 20.9192 3.34898 21.1448L3.40353 21.1944L12.729 12.1057V11.8911L3.40353 2.80237L3.34898 2.85556Z" fill="currentColor"/>
    <path d="M16.9627 15.1367L13.8577 12.1056V11.891L16.9665 8.8599L17.0361 8.89934L20.7177 10.9418C21.7684 11.5214 21.7684 12.4752 20.7177 13.0585L17.0361 15.0972L16.9627 15.1367Z" fill="currentColor"/>
    <path d="M16.4718 15.6617L13.2934 12.5628L3.91337 21.7092C4.26235 22.0669 4.83143 22.11 5.47859 21.7523L16.4718 15.6617Z" fill="currentColor"/>
    <path d="M16.4718 8.33517L5.47859 2.24456C4.83143 1.89055 4.26235 1.93365 3.91337 2.29133L13.2934 11.4341L16.4718 8.33517Z" fill="currentColor"/>
</svg>
