<svg width="1em" height="1em" viewBox="0 0 24 24" fill="none" xmlns="http://www.w3.org/2000/svg">
    <path d="M18.0341 12.3957C18.009 9.6885 20.3227 8.37145 20.4285 8.31013C19.1181 6.45971 17.0871 6.20688 16.3734 6.18672C14.6676 6.01285 13.0129 7.17535 12.144 7.17535C11.2577 7.17535 9.91959 6.20352 8.47741 6.23208C6.62157 6.2598 4.88541 7.3005 3.93321 8.91658C1.9681 12.2117 3.43369 17.0541 5.31641 19.7176C6.25821 21.022 7.35871 22.4785 8.79915 22.4273C10.2084 22.371 10.7348 21.5571 12.4354 21.5571C14.1204 21.5571 14.6147 22.4273 16.0838 22.3945C17.5962 22.371 18.5484 21.0842 19.4572 19.768C20.5456 18.2728 20.9827 16.8004 21 16.7248C20.9644 16.713 18.0627 15.6404 18.0341 12.3957Z" fill="currentColor"/>
    <path d="M15.259 4.43458C16.017 3.51651 16.5356 2.26749 16.3916 1C15.2946 1.04704 13.9227 1.73496 13.1326 2.63287C12.4336 3.42411 11.8093 4.721 11.9706 5.94062C13.2029 6.02965 14.4681 5.33837 15.259 4.43458Z" fill="currentColor"/>
</svg>
