<svg width="1em" height="1em" viewBox="0 0 16 16" fill="none" xmlns="http://www.w3.org/2000/svg">
<path d="M10.7833 8.66668H3.33329C3.1444 8.66668 2.98607 8.60279 2.85829 8.47501C2.73051 8.34723 2.66663 8.1889 2.66663 8.00001C2.66663 7.81112 2.73051 7.65279 2.85829 7.52501C2.98607 7.39723 3.1444 7.33335 3.33329 7.33335H10.7833L7.51663 4.06668C7.38329 3.93335 7.3194 3.77779 7.32496 3.60001C7.33051 3.42223 7.39996 3.26668 7.53329 3.13335C7.66663 3.01112 7.82218 2.94723 7.99996 2.94168C8.17774 2.93612 8.33329 3.00001 8.46663 3.13335L12.8666 7.53335C12.9333 7.60001 12.9805 7.67223 13.0083 7.75001C13.0361 7.82779 13.05 7.91112 13.05 8.00001C13.05 8.0889 13.0361 8.17223 13.0083 8.25001C12.9805 8.32779 12.9333 8.40001 12.8666 8.46668L8.46663 12.8667C8.3444 12.9889 8.19163 13.05 8.00829 13.05C7.82496 13.05 7.66663 12.9889 7.53329 12.8667C7.39996 12.7333 7.33329 12.575 7.33329 12.3917C7.33329 12.2083 7.39996 12.05 7.53329 11.9167L10.7833 8.66668Z" fill="currentColor"/>
</svg>
