<svg width="1em" height="1em" viewBox="0 0 16 16" fill="currentColor" xmlns="http://www.w3.org/2000/svg">
<path d="M12.863 11.526L12.003 10.666V7.33268C12.003 5.28602 10.9096 3.57268 9.00296 3.11935V2.66602C9.00296 2.11268 8.5563 1.66602 8.00296 1.66602C7.44963 1.66602 7.00296 2.11268 7.00296 2.66602V3.11935C5.08963 3.57268 4.00296 5.27935 4.00296 7.33268V10.666L3.14296 11.526C2.72296 11.946 3.0163 12.666 3.60963 12.666H12.3896C12.9896 12.666 13.283 11.946 12.863 11.526ZM10.6696 11.3327H5.3363V7.33268C5.3363 5.67935 6.34296 4.33268 8.00296 4.33268C9.66296 4.33268 10.6696 5.67935 10.6696 7.33268V11.3327ZM8.00296 14.666C8.7363 14.666 9.3363 14.066 9.3363 13.3327H6.66963C6.66963 14.066 7.26296 14.666 8.00296 14.666Z"/>
</svg>
