<svg width="1em" height="1em" viewBox="0 0 24 24" fill="none" xmlns="http://www.w3.org/2000/svg">
    <path d="M5.43838 9.50222C5.05868 9.50222 4.75088 9.81002 4.75088 10.1897C4.75088 10.5694 5.05868 10.8772 5.43838 10.8772H13.23C13.6097 10.8772 13.9175 10.5694 13.9175 10.1897C13.9175 9.81002 13.6097 9.50222 13.23 9.50222H5.43838Z" fill="currentColor"/>
    <path d="M4.75088 13.8563C4.75088 13.4766 5.05868 13.1688 5.43838 13.1688H13.23C13.6097 13.1688 13.9175 13.4766 13.9175 13.8563C13.9175 14.236 13.6097 14.5438 13.23 14.5438H5.43838C5.05868 14.5438 4.75088 14.236 4.75088 13.8563Z" fill="currentColor"/>
    <path d="M5.43838 16.8075C5.05868 16.8075 4.75088 17.1153 4.75088 17.495C4.75088 17.8746 5.05868 18.1825 5.43838 18.1825H13.23C13.6097 18.1825 13.9175 17.8746 13.9175 17.495C13.9175 17.1153 13.6097 16.8075 13.23 16.8075H5.43838Z" fill="currentColor"/>
    <path fill-rule="evenodd" clip-rule="evenodd" d="M7.01175 4.88489C6.78862 4.82606 6.55082 4.87568 6.36983 5.01884L5.38445 5.79829L1.9203 4.88489C1.70035 4.8269 1.46593 4.87426 1.28575 5.01309C1.10556 5.15193 1 5.36652 1 5.59399V22.2667C1 22.5478 1.16076 22.8042 1.41384 22.9267C1.66693 23.0492 1.96776 23.0162 2.18828 22.8418L3.17366 22.0624L6.63782 22.9758C6.86095 23.0346 7.09875 22.985 7.27974 22.8418L8.26512 22.0624L11.7293 22.9758C11.9524 23.0346 12.1902 22.985 12.3712 22.8418L13.3566 22.0624L16.8207 22.9758C17.0407 23.0338 17.2751 22.9864 17.4553 22.8476C17.6355 22.7087 17.741 22.4941 17.741 22.2667V5.59399C17.741 5.31282 17.5803 5.05641 17.3272 4.93391C17.0741 4.81142 16.7733 4.84441 16.5527 5.01884L15.5674 5.79829L12.1032 4.88489C11.8801 4.82606 11.6423 4.87568 11.4613 5.01884L10.4759 5.79829L7.01175 4.88489ZM6.00687 7.17599L6.99225 6.39654L10.4564 7.30994C10.6795 7.36877 10.9173 7.31915 11.0983 7.17599L12.0837 6.39654L15.5479 7.30994C15.771 7.36877 16.0088 7.31915 16.1898 7.17599L16.2744 7.10909V21.3149L13.3761 20.5507C13.1529 20.4919 12.9151 20.5415 12.7342 20.6847L11.7488 21.4641L8.28462 20.5507C8.06149 20.4919 7.82368 20.5415 7.6427 20.6847L6.65732 21.4641L3.19316 20.5507C2.97003 20.4919 2.73223 20.5415 2.55124 20.6847L2.46667 20.7516V6.54575L5.36495 7.30994C5.58808 7.36877 5.82589 7.31915 6.00687 7.17599Z" fill="currentColor"/>
    <path d="M11.6288 1.15819C11.8098 1.01503 12.0476 0.965409 12.2708 1.02424L15.7349 1.93764L16.7203 1.15819C16.9013 1.01503 17.1391 0.965409 17.3622 1.02424L20.8264 1.93764L21.8118 1.15819C22.0323 0.983757 22.3331 0.950766 22.5862 1.07326C22.8393 1.19576 23 1.45217 23 1.73334V18.406C23 18.6335 22.8945 18.8481 22.7143 18.9869C22.5341 19.1257 22.2997 19.1731 22.0797 19.1151L18.6156 18.2017L18.6095 18.2065V16.6838C18.618 16.6857 18.6266 16.6878 18.6351 16.6901L21.5334 17.4543V3.24844L21.4488 3.31534C21.2678 3.4585 21.03 3.50812 20.8069 3.44929L17.3427 2.53589L16.3573 3.31534C16.1764 3.4585 15.9386 3.50812 15.7154 3.44929L12.2513 2.53589L11.2659 3.31534C11.0849 3.4585 10.8471 3.50812 10.624 3.44929L7.72568 2.6851V4.19524H6.25901V1.73334C6.25901 1.50587 6.36457 1.29128 6.54476 1.15244C6.72495 1.01361 6.95936 0.966249 7.17931 1.02424L10.6435 1.93764L11.6288 1.15819Z" fill="currentColor"/>
    <path d="M18.6095 7.01657V5.64157H19.4057C19.7854 5.64157 20.0932 5.94937 20.0932 6.32907C20.0932 6.70876 19.7854 7.01657 19.4057 7.01657H18.6095Z" fill="currentColor"/>
    <path d="M18.6095 10.6832V9.30818H19.4057C19.7854 9.30818 20.0932 9.61598 20.0932 9.99568C20.0932 10.3754 19.7854 10.6832 19.4057 10.6832H18.6095Z" fill="currentColor"/>
    <path d="M18.6095 14.3218V12.9468H19.4057C19.7854 12.9468 20.0932 13.2546 20.0932 13.6343C20.0932 14.014 19.7854 14.3218 19.4057 14.3218H18.6095Z" fill="currentColor"/>
</svg>
