<svg width="1em" height="1em" viewBox="0 0 24 24" fill="none" xmlns="http://www.w3.org/2000/svg">
    <path d="M11.6288 1.15819C11.8098 1.01503 12.0476 0.965409 12.2708 1.02424L15.7349 1.93764L16.7203 1.15819C16.9013 1.01503 17.1391 0.965409 17.3622 1.02424L20.8264 1.93764L21.8118 1.15819C22.0323 0.983757 22.3331 0.950766 22.5862 1.07326C22.8393 1.19576 23 1.45217 23 1.73334V13.3925C22.607 12.7401 22.1105 12.1571 21.5334 11.6661V3.24844L21.4488 3.31534C21.2678 3.4585 21.03 3.50812 20.8069 3.44929L17.3427 2.53589L16.3573 3.31534C16.1764 3.4585 15.9386 3.50812 15.7154 3.44929L12.2513 2.53589L11.2659 3.31534C11.0849 3.4585 10.8471 3.50812 10.624 3.44929L7.72568 2.6851V4.19524H6.25901V1.73334C6.25901 1.50587 6.36457 1.29128 6.54476 1.15244C6.72495 1.01361 6.95936 0.966249 7.17931 1.02424L10.6435 1.93764L11.6288 1.15819Z" fill="currentColor"/>
    <path d="M19.7788 10.5732C19.968 10.4508 20.0932 10.2378 20.0932 9.99568C20.0932 9.61598 19.7854 9.30818 19.4057 9.30818H18.6095V10.1859C19.0139 10.2811 19.4048 10.4113 19.7788 10.5732Z" fill="currentColor"/>
    <path d="M17.741 10.0388V5.59399C17.741 5.31282 17.5803 5.05641 17.3272 4.93391C17.0741 4.81142 16.7733 4.84441 16.5527 5.01884L15.5674 5.79829L12.1032 4.88489C11.8801 4.82606 11.6423 4.87568 11.4613 5.01884L10.4759 5.79829L7.01175 4.88489C6.78862 4.82606 6.55082 4.87568 6.36983 5.01884L5.38445 5.79829L1.9203 4.88489C1.70035 4.8269 1.46593 4.87426 1.28575 5.01309C1.10556 5.15193 1 5.36652 1 5.59399V22.2667C1 22.5478 1.16076 22.8042 1.41384 22.9267C1.66693 23.0492 1.96776 23.0162 2.18828 22.8418L3.17366 22.0624L6.63782 22.9758C6.86095 23.0346 7.09875 22.985 7.27974 22.8418L8.26512 22.0624L11.7293 22.9758C11.9524 23.0346 12.1902 22.985 12.3712 22.8418L12.7369 22.5525C12.3049 22.2204 11.9128 21.839 11.569 21.4167L8.28462 20.5507C8.06149 20.4919 7.82368 20.5415 7.6427 20.6847L6.65732 21.4641L3.19316 20.5507C2.97003 20.4919 2.73223 20.5415 2.55124 20.6847L2.46667 20.7516V6.54575L5.36495 7.30994C5.58808 7.36877 5.82589 7.31915 6.00687 7.17599L6.99225 6.39654L10.4564 7.30994C10.6795 7.36877 10.9173 7.31915 11.0983 7.17599L12.0837 6.39654L15.5479 7.30994C15.771 7.36877 16.0088 7.31915 16.1898 7.17599L16.2744 7.10909V10.0372C16.5129 10.0126 16.755 10 17 10C17.2503 10 17.4975 10.0131 17.741 10.0388Z" fill="currentColor"/>
    <path d="M11.1405 13.1688H5.43838C5.05868 13.1688 4.75088 13.4766 4.75088 13.8563C4.75088 14.236 5.05868 14.5438 5.43838 14.5438H10.443C10.6253 14.0575 10.8601 13.5969 11.1405 13.1688Z" fill="currentColor"/>
    <path d="M10.0026 16.8075H5.43838C5.05868 16.8075 4.75088 17.1153 4.75088 17.495C4.75088 17.8746 5.05868 18.1825 5.43838 18.1825H10.0995C10.0341 17.7981 10 17.403 10 17C10 16.9356 10.0009 16.8714 10.0026 16.8075Z" fill="currentColor"/>
    <path d="M4.75088 10.1897C4.75088 9.81002 5.05868 9.50222 5.43838 9.50222H13.23C13.6097 9.50222 13.9175 9.81002 13.9175 10.1897C13.9175 10.5694 13.6097 10.8772 13.23 10.8772H5.43838C5.05868 10.8772 4.75088 10.5694 4.75088 10.1897Z" fill="currentColor"/>
    <path d="M18.6095 5.64157V7.01657H19.4057C19.7854 7.01657 20.0932 6.70876 20.0932 6.32907C20.0932 5.94937 19.7854 5.64157 19.4057 5.64157H18.6095Z" fill="currentColor"/>
    <path d="M17 11.4C13.9075 11.4 11.4 13.9075 11.4 17C11.4 20.0925 13.9075 22.6 17 22.6C20.0925 22.6 22.6 20.0925 22.6 17C22.6 13.9075 20.0925 11.4 17 11.4ZM19.0675 19.1275L18.2425 19.1238L17 17.6425L15.7588 19.1225L14.9325 19.1263C14.8775 19.1263 14.8325 19.0825 14.8325 19.0263C14.8325 19.0025 14.8413 18.98 14.8563 18.9613L16.4825 17.0238L14.8563 15.0875C14.8412 15.0692 14.8328 15.0463 14.8325 15.0225C14.8325 14.9675 14.8775 14.9225 14.9325 14.9225L15.7588 14.9263L17 16.4075L18.2413 14.9275L19.0663 14.9238C19.1213 14.9238 19.1663 14.9675 19.1663 15.0238C19.1663 15.0475 19.1575 15.07 19.1425 15.0888L17.5188 17.025L19.1438 18.9625C19.1588 18.9813 19.1675 19.0038 19.1675 19.0275C19.1675 19.0825 19.1225 19.1275 19.0675 19.1275Z" fill="currentColor"/>
</svg>
