<svg width="1em" height="1em" viewBox="0 0 24 24" fill="none" xmlns="http://www.w3.org/2000/svg">
    <path d="M8.80796 2.12252C9.00539 1.96635 9.26482 1.91222 9.50823 1.9764L13.2873 2.97283L14.3623 2.12252C14.5597 1.96635 14.8191 1.91222 15.0625 1.9764L18.8416 2.97283L19.9166 2.12252C20.1572 1.93223 20.4853 1.89624 20.7614 2.02987C21.0375 2.16351 21.2129 2.44323 21.2129 2.74996V11.4091C20.7253 11.0411 20.188 10.7354 19.6129 10.5039V4.40279L19.5206 4.47578C19.3232 4.63195 19.0638 4.68608 18.8204 4.6219L15.0413 3.62547L13.9663 4.47578C13.7689 4.63195 13.5095 4.68608 13.266 4.6219L9.48696 3.62547L8.412 4.47578C8.21456 4.63195 7.95514 4.68608 7.71172 4.6219L4.54995 3.78824V19.2855L4.64222 19.2125C4.83965 19.0563 5.09908 19.0022 5.34249 19.0664L9.12157 20.0628L10.1965 19.2125C10.2382 19.1795 10.2827 19.1511 10.3292 19.1274C10.5162 19.7143 10.7785 20.2676 11.1047 20.7759L10.8755 20.7155L9.80058 21.5658C9.60314 21.7219 9.34372 21.7761 9.1003 21.7119L5.32122 20.7155L4.24626 21.5658C4.00569 21.7561 3.67751 21.7921 3.40142 21.6584C3.12533 21.5248 2.94995 21.2451 2.94995 20.9383V2.74996C2.94995 2.50181 3.06511 2.26771 3.26167 2.11625C3.45824 1.9648 3.71397 1.91313 3.95392 1.9764L7.733 2.97283L8.80796 2.12252Z" fill="currentColor"/>
    <path d="M10.5837 14.1972C10.376 14.672 10.2194 15.1743 10.121 15.6972H7.7918C7.37758 15.6972 7.0418 15.3614 7.0418 14.9472C7.0418 14.533 7.37758 14.1972 7.7918 14.1972H10.5837Z" fill="currentColor"/>
    <path d="M13.0836 11.1972C12.4729 11.6102 11.9308 12.1171 11.4782 12.6972H7.7918C7.37758 12.6972 7.0418 12.3614 7.0418 11.9472C7.0418 11.533 7.37758 11.1972 7.7918 11.1972H13.0836Z" fill="currentColor"/>
    <path d="M7.0418 8.94719C7.0418 8.53298 7.37758 8.19719 7.7918 8.19719H16.2918C16.706 8.19719 17.0418 8.53298 17.0418 8.94719C17.0418 9.36141 16.706 9.69719 16.2918 9.69719H7.7918C7.37758 9.69719 7.0418 9.36141 7.0418 8.94719Z" fill="currentColor"/>
    <path d="M17 11.4C13.9075 11.4 11.4 13.9075 11.4 17C11.4 20.0925 13.9075 22.6 17 22.6C20.0925 22.6 22.6 20.0925 22.6 17C22.6 13.9075 20.0925 11.4 17 11.4ZM19.2063 18.7213L18.8488 19.2088C18.841 19.2194 18.8312 19.2284 18.8199 19.2352C18.8087 19.242 18.7962 19.2465 18.7832 19.2485C18.7702 19.2505 18.7569 19.2499 18.7441 19.2467C18.7314 19.2435 18.7194 19.2379 18.7088 19.23L16.6413 17.7225C16.6284 17.7133 16.6179 17.7011 16.6107 17.6869C16.6036 17.6728 16.5999 17.6571 16.6 17.6413V14.2C16.6 14.145 16.645 14.1 16.7 14.1H17.3013C17.3563 14.1 17.4013 14.145 17.4013 14.2V17.2938L19.1838 18.5825C19.2288 18.6138 19.2388 18.6763 19.2063 18.7213Z" fill="#7B36FF"/>
</svg>
