<svg width="1em" height="1em" viewBox="0 0 24 24" fill="none" xmlns="http://www.w3.org/2000/svg">
    <path d="M7.79194 7.0136C7.37773 7.0136 7.04194 7.34939 7.04194 7.7636C7.04194 8.17782 7.37773 8.5136 7.79194 8.5136H16.2919C16.7062 8.5136 17.0419 8.17782 17.0419 7.7636C17.0419 7.34939 16.7062 7.0136 16.2919 7.0136H7.79194Z" fill="currentColor"/>
    <path d="M7.04194 11.7635C7.04194 11.3493 7.37773 11.0135 7.79194 11.0135H16.2919C16.7062 11.0135 17.0419 11.3493 17.0419 11.7635C17.0419 12.1778 16.7062 12.5135 16.2919 12.5135H7.79194C7.37773 12.5135 7.04194 12.1778 7.04194 11.7635Z" fill="currentColor"/>
    <path d="M7.79194 14.983C7.37773 14.983 7.04194 15.3187 7.04194 15.733C7.04194 16.1472 7.37773 16.483 7.79194 16.483H16.2919C16.7062 16.483 17.0419 16.1472 17.0419 15.733C17.0419 15.3187 16.7062 14.983 16.2919 14.983H7.79194Z" fill="currentColor"/>
    <path fill-rule="evenodd" clip-rule="evenodd" d="M9.50835 1.97652C9.26494 1.91234 9.00551 1.96647 8.80808 2.12264L7.73312 2.97295L3.95404 1.97652C3.71409 1.91325 3.45837 1.96492 3.2618 2.11637C3.06523 2.26783 2.95007 2.50193 2.95007 2.75008V20.9385C2.95007 21.2452 3.12545 21.5249 3.40154 21.6585C3.67763 21.7922 4.00582 21.7562 4.24638 21.5659L5.32134 20.7156L9.10042 21.712C9.34384 21.7762 9.60326 21.7221 9.8007 21.5659L10.8757 20.7156L14.6547 21.712C14.8982 21.7762 15.1576 21.7221 15.355 21.5659L16.43 20.7156L20.2091 21.712C20.449 21.7753 20.7047 21.7236 20.9013 21.5722C21.0979 21.4207 21.213 21.1866 21.213 20.9385V2.75008C21.213 2.44335 21.0376 2.16363 20.7616 2.03C20.4855 1.89636 20.1573 1.93235 19.9167 2.12264L18.8418 2.97295L15.0627 1.97652C14.8193 1.91234 14.5598 1.96647 14.3624 2.12264L13.2874 2.97295L9.50835 1.97652ZM8.41212 4.4759L9.48708 3.62559L13.2662 4.62203C13.5096 4.68621 13.769 4.63207 13.9664 4.4759L15.0414 3.62559L18.8205 4.62203C19.0639 4.68621 19.3233 4.63207 19.5208 4.4759L19.613 4.40291V19.9002L16.4512 19.0665C16.2078 19.0023 15.9484 19.0565 15.751 19.2126L14.676 20.0629L10.8969 19.0665C10.6535 19.0023 10.3941 19.0565 10.1967 19.2126L9.1217 20.0629L5.34262 19.0665C5.0992 19.0023 4.83977 19.0565 4.64234 19.2126L4.55007 19.2856V3.78836L7.71184 4.62203C7.95526 4.68621 8.21468 4.63207 8.41212 4.4759Z" fill="currentColor"/>
</svg>
