<svg width="1em" height="1em" viewBox="0 0 24 24" fill="none" xmlns="http://www.w3.org/2000/svg">
    <path d="M8.80796 2.12252C9.00539 1.96635 9.26482 1.91222 9.50823 1.9764L13.2873 2.97283L14.3623 2.12252C14.5597 1.96635 14.8191 1.91222 15.0625 1.9764L18.8416 2.97283L19.9166 2.12252C20.1572 1.93223 20.4853 1.89624 20.7614 2.02987C21.0375 2.16351 21.2129 2.44323 21.2129 2.74996V11.4091C20.7253 11.0411 20.188 10.7354 19.6129 10.5039V4.40279L19.5206 4.47578C19.3232 4.63195 19.0638 4.68608 18.8204 4.6219L15.0413 3.62547L13.9663 4.47578C13.7689 4.63195 13.5095 4.68608 13.266 4.6219L9.48696 3.62547L8.412 4.47578C8.21456 4.63195 7.95514 4.68608 7.71172 4.6219L4.54995 3.78824V19.2855L4.64222 19.2125C4.83965 19.0563 5.09908 19.0022 5.34249 19.0664L9.12157 20.0628L10.1965 19.2125C10.2382 19.1795 10.2827 19.1511 10.3292 19.1274C10.5162 19.7143 10.7785 20.2676 11.1047 20.7759L10.8755 20.7155L9.80058 21.5658C9.60314 21.7219 9.34372 21.7761 9.1003 21.7119L5.32122 20.7155L4.24626 21.5658C4.00569 21.7561 3.67751 21.7921 3.40142 21.6584C3.12533 21.5248 2.94995 21.2451 2.94995 20.9383V2.74996C2.94995 2.50181 3.06511 2.26771 3.26167 2.11625C3.45824 1.9648 3.71397 1.91313 3.95392 1.9764L7.733 2.97283L8.80796 2.12252Z" fill="currentColor"/>
    <path d="M10.5837 14.1972C10.376 14.672 10.2194 15.1743 10.121 15.6972H7.7918C7.37758 15.6972 7.0418 15.3614 7.0418 14.9472C7.0418 14.533 7.37758 14.1972 7.7918 14.1972H10.5837Z" fill="currentColor"/>
    <path d="M13.0836 11.1972C12.4729 11.6102 11.9308 12.1171 11.4782 12.6972H7.7918C7.37758 12.6972 7.0418 12.3614 7.0418 11.9472C7.0418 11.533 7.37758 11.1972 7.7918 11.1972H13.0836Z" fill="currentColor"/>
    <path d="M7.0418 8.94719C7.0418 8.53298 7.37758 8.19719 7.7918 8.19719H16.2918C16.706 8.19719 17.0418 8.53298 17.0418 8.94719C17.0418 9.36141 16.706 9.69719 16.2918 9.69719H7.7918C7.37758 9.69719 7.0418 9.36141 7.0418 8.94719Z" fill="currentColor"/>
    <path d="M17 11.4C13.9075 11.4 11.4 13.9075 11.4 17C11.4 20.0925 13.9075 22.6 17 22.6C20.0925 22.6 22.6 20.0925 22.6 17C22.6 13.9075 20.0925 11.4 17 11.4ZM19.0675 19.1275L18.2425 19.1238L17 17.6425L15.7588 19.1225L14.9325 19.1263C14.8775 19.1263 14.8325 19.0825 14.8325 19.0263C14.8325 19.0025 14.8413 18.98 14.8563 18.9613L16.4825 17.0238L14.8563 15.0875C14.8412 15.0692 14.8328 15.0463 14.8325 15.0225C14.8325 14.9675 14.8775 14.9225 14.9325 14.9225L15.7588 14.9263L17 16.4075L18.2413 14.9275L19.0663 14.9238C19.1213 14.9238 19.1663 14.9675 19.1663 15.0238C19.1663 15.0475 19.1575 15.07 19.1425 15.0888L17.5188 17.025L19.1438 18.9625C19.1588 18.9813 19.1675 19.0038 19.1675 19.0275C19.1675 19.0825 19.1225 19.1275 19.0675 19.1275Z" fill="currentColor"/>
</svg>
