<svg width="1em" height="1em" viewBox="0 0 24 24" fill="none" xmlns="http://www.w3.org/2000/svg">
    <path d="M6 22C5.45 22 4.97917 21.8042 4.5875 21.4125C4.19583 21.0208 4 20.55 4 20V4C4 3.45 4.19583 2.97917 4.5875 2.5875C4.97917 2.19583 5.45 2 6 2H18C18.55 2 19.0208 2.19583 19.4125 2.5875C19.8042 2.97917 20 3.45 20 4V20C20 20.55 19.8042 21.0208 19.4125 21.4125C19.0208 21.8042 18.55 22 18 22H6ZM6 20H18V4H16V10.125C16 10.325 15.9167 10.4708 15.75 10.5625C15.5833 10.6542 15.4167 10.65 15.25 10.55L14.025 9.8C13.8583 9.7 13.6875 9.65 13.5125 9.65C13.3375 9.65 13.1667 9.7 13 9.8L11.775 10.55C11.6083 10.65 11.4375 10.6542 11.2625 10.5625C11.0875 10.4708 11 10.325 11 10.125V4H6V20Z" fill="currentColor"/>
</svg>
