<svg width="1em" height="1em" viewBox="0 0 20 20" fill="none" xmlns="http://www.w3.org/2000/svg">
<path d="M10 18.125C8.87625 18.125 7.82021 17.9114 6.83187 17.4842C5.84368 17.0568 4.98403 16.477 4.25292 15.7446C3.52181 15.0121 2.94271 14.1522 2.51562 13.1648C2.08854 12.1776 1.875 11.1227 1.875 10C1.875 8.90282 2.08333 7.86289 2.5 6.88025C2.91667 5.89761 3.48785 5.03476 4.21354 4.29171C4.93924 3.54865 5.79514 2.95837 6.78125 2.52087C7.76736 2.08337 8.82819 1.86462 9.96375 1.86462C10.2379 1.86462 10.5139 1.87851 10.7917 1.90629C11.0694 1.93407 11.3507 1.97574 11.6354 2.03129C11.5312 2.6424 11.5781 3.21358 11.776 3.74483C11.974 4.27608 12.2708 4.72226 12.6667 5.08337C13.0625 5.44449 13.533 5.70143 14.0781 5.85421C14.6233 6.00699 15.1944 6.01046 15.7917 5.86462C15.5069 6.67712 15.6198 7.43754 16.1302 8.14587C16.6406 8.85421 17.2917 9.21532 18.0833 9.22921C18.0903 9.3056 18.0955 9.37678 18.099 9.44275C18.1024 9.50872 18.1042 9.5799 18.1042 9.65629C18.1597 10.823 17.9826 11.9202 17.5729 12.948C17.1632 13.9757 16.5903 14.8733 15.8542 15.6407C15.1181 16.408 14.2465 17.0139 13.2396 17.4584C12.2326 17.9028 11.1528 18.125 10 18.125ZM8.74875 8.31254C9.08986 8.31254 9.38021 8.19317 9.61979 7.95442C9.85938 7.71567 9.97917 7.42574 9.97917 7.08462C9.97917 6.74351 9.85979 6.45317 9.62104 6.21358C9.38229 5.974 9.09236 5.85421 8.75125 5.85421C8.41014 5.85421 8.11979 5.97358 7.88021 6.21233C7.64062 6.45108 7.52083 6.74101 7.52083 7.08212C7.52083 7.42324 7.64021 7.71358 7.87896 7.95317C8.11771 8.19275 8.40764 8.31254 8.74875 8.31254ZM7.08208 12.4792C7.42319 12.4792 7.71354 12.3598 7.95312 12.1211C8.19271 11.8823 8.3125 11.5924 8.3125 11.2513C8.3125 10.9102 8.19313 10.6198 7.95438 10.3802C7.71563 10.1407 7.42569 10.0209 7.08458 10.0209C6.74347 10.0209 6.45312 10.1403 6.21354 10.379C5.97396 10.6178 5.85417 10.9077 5.85417 11.2488C5.85417 11.5899 5.97354 11.8802 6.21229 12.1198C6.45104 12.3594 6.74097 12.4792 7.08208 12.4792ZM12.499 13.3125C12.7288 13.3125 12.9219 13.2348 13.0781 13.0792C13.2344 12.9238 13.3125 12.7311 13.3125 12.5011C13.3125 12.2712 13.2347 12.0782 13.0792 11.9219C12.9237 11.7657 12.731 11.6875 12.501 11.6875C12.2712 11.6875 12.0781 11.7653 11.9219 11.9209C11.7656 12.0763 11.6875 12.269 11.6875 12.499C11.6875 12.7289 11.7653 12.9219 11.9208 13.0782C12.0763 13.2344 12.269 13.3125 12.499 13.3125ZM9.99875 16.5625C11.6732 16.5625 13.1545 15.9862 14.4427 14.8334C15.7309 13.6806 16.4375 12.2084 16.5625 10.4167C15.8843 10.1174 15.3519 9.70921 14.9652 9.19212C14.5787 8.67518 14.3194 8.09726 14.1875 7.45837C13.1389 7.3056 12.2361 6.85942 11.4792 6.11983C10.7222 5.38025 10.2639 4.48268 10.1042 3.42712C9.04861 3.41324 8.10764 3.60421 7.28125 4.00004C6.45486 4.39587 5.75694 4.9115 5.1875 5.54692C4.61806 6.18233 4.18403 6.8924 3.88542 7.67712C3.58681 8.46185 3.4375 9.23615 3.4375 10C3.4375 11.8264 4.07465 13.3768 5.34896 14.6511C6.62326 15.9254 8.17319 16.5625 9.99875 16.5625Z" fill="currentColor"/>
</svg>
