<svg width="1em" height="1em" viewBox="0 0 16 16" fill="none" xmlns="http://www.w3.org/2000/svg">
<path d="M7.99992 11.3334C8.18881 11.3334 8.34714 11.2695 8.47492 11.1417C8.6027 11.0139 8.66659 10.8556 8.66659 10.6667C8.66659 10.4778 8.6027 10.3195 8.47492 10.1917C8.34714 10.0639 8.18881 10 7.99992 10C7.81103 10 7.6527 10.0639 7.52492 10.1917C7.39714 10.3195 7.33325 10.4778 7.33325 10.6667C7.33325 10.8556 7.39714 11.0139 7.52492 11.1417C7.6527 11.2695 7.81103 11.3334 7.99992 11.3334ZM7.99992 8.66671C8.18881 8.66671 8.34714 8.60282 8.47492 8.47504C8.6027 8.34726 8.66659 8.18893 8.66659 8.00004V5.33337C8.66659 5.14449 8.6027 4.98615 8.47492 4.85837C8.34714 4.7306 8.18881 4.66671 7.99992 4.66671C7.81103 4.66671 7.6527 4.7306 7.52492 4.85837C7.39714 4.98615 7.33325 5.14449 7.33325 5.33337V8.00004C7.33325 8.18893 7.39714 8.34726 7.52492 8.47504C7.6527 8.60282 7.81103 8.66671 7.99992 8.66671ZM7.99992 14.6667C7.0777 14.6667 6.21103 14.4917 5.39992 14.1417C4.58881 13.7917 3.88325 13.3167 3.28325 12.7167C2.68325 12.1167 2.20825 11.4112 1.85825 10.6C1.50825 9.78893 1.33325 8.92226 1.33325 8.00004C1.33325 7.07782 1.50825 6.21115 1.85825 5.40004C2.20825 4.58893 2.68325 3.88337 3.28325 3.28337C3.88325 2.68337 4.58881 2.20837 5.39992 1.85837C6.21103 1.50837 7.0777 1.33337 7.99992 1.33337C8.92214 1.33337 9.78881 1.50837 10.5999 1.85837C11.411 2.20837 12.1166 2.68337 12.7166 3.28337C13.3166 3.88337 13.7916 4.58893 14.1416 5.40004C14.4916 6.21115 14.6666 7.07782 14.6666 8.00004C14.6666 8.92226 14.4916 9.78893 14.1416 10.6C13.7916 11.4112 13.3166 12.1167 12.7166 12.7167C12.1166 13.3167 11.411 13.7917 10.5999 14.1417C9.78881 14.4917 8.92214 14.6667 7.99992 14.6667Z" fill="currentColor"/>
</svg>
