<svg width="40" height="40" viewBox="0 0 40 40" fill="none" xmlns="http://www.w3.org/2000/svg">
<path fill-rule="evenodd" clip-rule="evenodd" d="M9.8 2.6C8.95131 2.6 8.13737 2.93714 7.53726 3.53726C6.93714 4.13737 6.6 4.95131 6.6 5.8V33.8C6.6 35.5673 8.03269 37 9.8 37H21.3C21.7418 37 22.1 37.3582 22.1 37.8C22.1 38.2418 21.7418 38.6 21.3 38.6H9.8C7.14903 38.6 5 36.451 5 33.8V5.8C5 4.52696 5.50571 3.30606 6.40589 2.40589C7.30606 1.50571 8.52696 1 9.8 1H23.8C24.0122 1 24.2157 1.08429 24.3657 1.23431L34.3657 11.2343C34.5157 11.3843 34.6 11.5878 34.6 11.8V20.8C34.6 21.2418 34.2418 21.6 33.8 21.6C33.3582 21.6 33 21.2418 33 20.8V12.1314L23.4686 2.6H9.8ZM22.8 4C23.2418 4 23.6 4.35817 23.6 4.8V11.2C23.6 11.4122 23.6843 11.6157 23.8343 11.7657C23.9843 11.9157 24.1878 12 24.4 12H30.8C31.2418 12 31.6 12.3582 31.6 12.8C31.6 13.2418 31.2418 13.6 30.8 13.6H24.4C23.7635 13.6 23.153 13.3471 22.7029 12.8971C22.2529 12.447 22 11.8365 22 11.2V4.8C22 4.35817 22.3582 4 22.8 4ZM10 6.8C10 6.35817 10.3582 6 10.8 6H17.8C18.2418 6 18.6 6.35817 18.6 6.8C18.6 7.24183 18.2418 7.6 17.8 7.6H10.8C10.3582 7.6 10 7.24183 10 6.8ZM10 11.8C10 11.3582 10.3582 11 10.8 11H17.8C18.2418 11 18.6 11.3582 18.6 11.8C18.6 12.2418 18.2418 12.6 17.8 12.6H10.8C10.3582 12.6 10 12.2418 10 11.8ZM10 17.8C10 17.3582 10.3582 17 10.8 17H28.8C29.2418 17 29.6 17.3582 29.6 17.8C29.6 18.2418 29.2418 18.6 28.8 18.6H10.8C10.3582 18.6 10 18.2418 10 17.8ZM10 22.8C10 22.3582 10.3582 22 10.8 22H22.8C23.2418 22 23.6 22.3582 23.6 22.8C23.6 23.2418 23.2418 23.6 22.8 23.6H10.8C10.3582 23.6 10 23.2418 10 22.8Z" fill="#251D35" fill-opacity="0.45"/>
<path fill-rule="evenodd" clip-rule="evenodd" d="M28.88 39.37C29.8533 39.79 30.8933 40 32 40C33.1067 40 34.1467 39.79 35.12 39.37C36.0933 38.95 36.94 38.38 37.66 37.66C38.38 36.94 38.95 36.0933 39.37 35.12C39.79 34.1467 40 33.1067 40 32C40 30.8933 39.79 29.8533 39.37 28.88C38.95 27.9067 38.38 27.06 37.66 26.34C36.94 25.62 36.0933 25.05 35.12 24.63C34.1467 24.21 33.1067 24 32 24C30.8933 24 29.8533 24.21 28.88 24.63C27.9067 25.05 27.06 25.62 26.34 26.34C25.62 27.06 25.05 27.9067 24.63 28.88C24.21 29.8533 24 30.8933 24 32C24 33.1067 24.21 34.1467 24.63 35.12C25.05 36.0933 25.62 36.94 26.34 37.66C27.06 38.38 27.9067 38.95 28.88 39.37ZM30.0467 35.3L31.9996 33.3471L33.9525 35.3C34.1185 35.466 34.3302 35.5427 34.5547 35.5427C34.7793 35.5427 34.991 35.466 35.157 35.3C35.323 35.134 35.3996 34.9223 35.3996 34.6978C35.3996 34.4733 35.323 34.2616 35.157 34.0956L33.2041 32.1427L35.157 30.1898C35.323 30.0238 35.3996 29.8121 35.3996 29.5875C35.3996 29.363 35.323 29.1513 35.157 28.9853C34.991 28.8193 34.7793 28.7427 34.5547 28.7427C34.3302 28.7427 34.1185 28.8193 33.9525 28.9853L31.9996 30.9382L30.0467 28.9853C29.8807 28.8193 29.669 28.7427 29.4445 28.7427C29.2199 28.7427 29.0082 28.8193 28.8422 28.9853C28.6762 29.1513 28.5996 29.363 28.5996 29.5875C28.5996 29.8121 28.6762 30.0238 28.8422 30.1898L30.7951 32.1427L28.8422 34.0956C28.6762 34.2616 28.5996 34.4733 28.5996 34.6978C28.5996 34.9223 28.6762 35.134 28.8422 35.3C29.0082 35.466 29.2199 35.5427 29.4445 35.5427C29.669 35.5427 29.8807 35.466 30.0467 35.3Z" fill="#FF4D4F"/>
</svg>
