<svg width="1em" height="1em" viewBox="0 0 16 16" fill="none" xmlns="http://www.w3.org/2000/svg">
<path d="M4.66659 11.3327C3.74436 11.3327 2.95825 11.0077 2.30825 10.3577C1.65825 9.70768 1.33325 8.92157 1.33325 7.99935C1.33325 7.07713 1.65825 6.29102 2.30825 5.64102C2.95825 4.99102 3.74436 4.66602 4.66659 4.66602H6.66659C6.85547 4.66602 7.01381 4.7299 7.14159 4.85768C7.26936 4.98546 7.33325 5.14379 7.33325 5.33268C7.33325 5.52157 7.26936 5.6799 7.14159 5.80768C7.01381 5.93546 6.85547 5.99935 6.66659 5.99935H4.66659C4.11103 5.99935 3.63881 6.19379 3.24992 6.58268C2.86103 6.97157 2.66659 7.44379 2.66659 7.99935C2.66659 8.5549 2.86103 9.02713 3.24992 9.41602C3.63881 9.8049 4.11103 9.99935 4.66659 9.99935H6.66659C6.85547 9.99935 7.01381 10.0632 7.14159 10.191C7.26936 10.3188 7.33325 10.4771 7.33325 10.666C7.33325 10.8549 7.26936 11.0132 7.14159 11.141C7.01381 11.2688 6.85547 11.3327 6.66659 11.3327H4.66659ZM5.99992 8.66602C5.81103 8.66602 5.6527 8.60213 5.52492 8.47435C5.39714 8.34657 5.33325 8.18824 5.33325 7.99935C5.33325 7.81046 5.39714 7.65213 5.52492 7.52435C5.6527 7.39657 5.81103 7.33268 5.99992 7.33268H9.99992C10.1888 7.33268 10.3471 7.39657 10.4749 7.52435C10.6027 7.65213 10.6666 7.81046 10.6666 7.99935C10.6666 8.18824 10.6027 8.34657 10.4749 8.47435C10.3471 8.60213 10.1888 8.66602 9.99992 8.66602H5.99992ZM9.33325 11.3327C9.14436 11.3327 8.98603 11.2688 8.85825 11.141C8.73047 11.0132 8.66659 10.8549 8.66659 10.666C8.66659 10.4771 8.73047 10.3188 8.85825 10.191C8.98603 10.0632 9.14436 9.99935 9.33325 9.99935H11.3333C11.8888 9.99935 12.361 9.8049 12.7499 9.41602C13.1388 9.02713 13.3333 8.5549 13.3333 7.99935C13.3333 7.44379 13.1388 6.97157 12.7499 6.58268C12.361 6.19379 11.8888 5.99935 11.3333 5.99935H9.33325C9.14436 5.99935 8.98603 5.93546 8.85825 5.80768C8.73047 5.6799 8.66659 5.52157 8.66659 5.33268C8.66659 5.14379 8.73047 4.98546 8.85825 4.85768C8.98603 4.7299 9.14436 4.66602 9.33325 4.66602H11.3333C12.2555 4.66602 13.0416 4.99102 13.6916 5.64102C14.3416 6.29102 14.6666 7.07713 14.6666 7.99935C14.6666 8.92157 14.3416 9.70768 13.6916 10.3577C13.0416 11.0077 12.2555 11.3327 11.3333 11.3327H9.33325Z" fill="currentColor"/>
</svg>
