<svg width="1em" height="1em" viewBox="0 0 16 16" fill="none" xmlns="http://www.w3.org/2000/svg">
<path d="M6.66671 10.6667C6.8556 10.6667 7.01393 10.6028 7.14171 10.475C7.26948 10.3473 7.33337 10.1889 7.33337 10V6.00004C7.33337 5.81115 7.26948 5.65282 7.14171 5.52504C7.01393 5.39726 6.8556 5.33337 6.66671 5.33337C6.47782 5.33337 6.31948 5.39726 6.19171 5.52504C6.06393 5.65282 6.00004 5.81115 6.00004 6.00004V10C6.00004 10.1889 6.06393 10.3473 6.19171 10.475C6.31948 10.6028 6.47782 10.6667 6.66671 10.6667ZM9.33337 10.6667C9.52226 10.6667 9.6806 10.6028 9.80837 10.475C9.93615 10.3473 10 10.1889 10 10V6.00004C10 5.81115 9.93615 5.65282 9.80837 5.52504C9.6806 5.39726 9.52226 5.33337 9.33337 5.33337C9.14448 5.33337 8.98615 5.39726 8.85837 5.52504C8.7306 5.65282 8.66671 5.81115 8.66671 6.00004V10C8.66671 10.1889 8.7306 10.3473 8.85837 10.475C8.98615 10.6028 9.14448 10.6667 9.33337 10.6667ZM8.00004 14.6667C7.07782 14.6667 6.21115 14.4917 5.40004 14.1417C4.58893 13.7917 3.88337 13.3167 3.28337 12.7167C2.68337 12.1167 2.20837 11.4112 1.85837 10.6C1.50837 9.78893 1.33337 8.92226 1.33337 8.00004C1.33337 7.07782 1.50837 6.21115 1.85837 5.40004C2.20837 4.58893 2.68337 3.88337 3.28337 3.28337C3.88337 2.68337 4.58893 2.20837 5.40004 1.85837C6.21115 1.50837 7.07782 1.33337 8.00004 1.33337C8.92226 1.33337 9.78893 1.50837 10.6 1.85837C11.4112 2.20837 12.1167 2.68337 12.7167 3.28337C13.3167 3.88337 13.7917 4.58893 14.1417 5.40004C14.4917 6.21115 14.6667 7.07782 14.6667 8.00004C14.6667 8.92226 14.4917 9.78893 14.1417 10.6C13.7917 11.4112 13.3167 12.1167 12.7167 12.7167C12.1167 13.3167 11.4112 13.7917 10.6 14.1417C9.78893 14.4917 8.92226 14.6667 8.00004 14.6667ZM8.00004 13.3334C9.48893 13.3334 10.75 12.8167 11.7834 11.7834C12.8167 10.75 13.3334 9.48893 13.3334 8.00004C13.3334 6.51115 12.8167 5.25004 11.7834 4.21671C10.75 3.18337 9.48893 2.66671 8.00004 2.66671C6.51115 2.66671 5.25004 3.18337 4.21671 4.21671C3.18337 5.25004 2.66671 6.51115 2.66671 8.00004C2.66671 9.48893 3.18337 10.75 4.21671 11.7834C5.25004 12.8167 6.51115 13.3334 8.00004 13.3334Z" fill="currentColor"/>
</svg>
