<svg xmlns="http://www.w3.org/2000/svg" width="1em" height="1em" fill="currentColor" viewBox="0 0 11 10"><path fill="#38384d" d="M4.5 4q-.824 0-1.412-.587A1.93 1.93 0 0 1 2.5 2q0-.824.587-1.412A1.93 1.93 0 0 1 4.5 0q.824 0 1.412.588Q6.5 1.175 6.5 2q0 .824-.588 1.413A1.93 1.93 0 0 1 4.5 4m0-1q.412 0 .706-.294A.96.96 0 0 0 5.5 2a.96.96 0 0 0-.294-.706A.96.96 0 0 0 4.5 1a.96.96 0 0 0-.706.294A.96.96 0 0 0 3.5 2q0 .412.294.706A.96.96 0 0 0 4.5 3m5.2 6.4L8.45 8.15q-.262.15-.562.25t-.638.1a2.17 2.17 0 0 1-1.594-.656A2.17 2.17 0 0 1 5 6.25q0-.937.656-1.594A2.17 2.17 0 0 1 7.25 4a2.17 2.17 0 0 1 1.594.656q.656.657.656 1.594 0 .338-.1.638t-.25.562L10.4 8.7a.47.47 0 0 1 .137.35.47.47 0 0 1-.137.35.47.47 0 0 1-.35.137.47.47 0 0 1-.35-.137M7.25 7.5q.525 0 .887-.362.363-.363.363-.888t-.363-.888A1.2 1.2 0 0 0 7.25 5q-.525 0-.888.362A1.2 1.2 0 0 0 6 6.25q0 .525.362.888.363.362.888.362M.5 7v-.388q0-.424.213-.787.212-.363.587-.55.525-.275 1.169-.481.644-.207 1.319-.269a.42.42 0 0 1 .362.125q.15.15.15.362 0 .213-.15.37a.58.58 0 0 1-.363.18 5.6 5.6 0 0 0-1.2.263q-.487.175-.825.35a.45.45 0 0 0-.193.181.5.5 0 0 0-.069.256V7h2.3q.213 0 .356.144A.48.48 0 0 1 4.3 7.5q0 .213-.144.356A.48.48 0 0 1 3.8 8H1.5a.96.96 0 0 1-.706-.294A.96.96 0 0 1 .5 7"/></svg>