<svg width="1rem" height="1rem" viewBox="0 0 18 18" fill="none" xmlns="http://www.w3.org/2000/svg">
<path d="M18.0012 8.99987C18.0014 8.45905 17.9533 7.9193 17.8572 7.38708L15.9195 8.81447C15.9195 8.87657 15.9195 8.93777 15.9195 8.99987C15.9211 10.5483 15.4041 12.0526 14.451 13.2728C13.4979 14.4931 12.1636 15.359 10.6609 15.7325C9.15826 16.1059 7.57381 15.9654 6.16034 15.3332C4.74687 14.7011 3.58583 13.6138 2.86241 12.2448C2.13899 10.8758 1.89488 9.30398 2.16903 7.78006C2.44318 6.25615 3.21978 4.86794 4.37496 3.8369C5.53013 2.80585 6.99732 2.19137 8.54248 2.09149C10.0876 1.9916 11.6217 2.41205 12.9 3.28578L14.6505 1.99608C13.0621 0.714258 11.0851 0.0104385 9.04406 0.000115198C7.00297 -0.0102081 5.01898 0.673578 3.41768 1.93927C1.81637 3.20496 0.692847 4.97737 0.231477 6.96566C-0.229893 8.95395 -0.00170603 11.04 0.878593 12.8815C1.75889 14.7231 3.23902 16.2107 5.07608 17.1003C6.91315 17.9898 8.99803 18.2285 10.9886 17.7772C12.9792 17.3259 14.7573 16.2113 16.031 14.6164C17.3048 13.0215 17.9986 11.041 17.9985 8.99987H18.0012Z" fill="currentColor"/>
<path d="M16.1229 3.49637C16.5512 4.04883 16.9136 4.64927 17.2029 5.28557L9.00214 11.33L5.57584 9.18167V6.59777L9.00214 8.74607L16.1229 3.49637Z" fill="currentColor"/>
</svg>
