<svg width="1em" height="1em" viewBox="0 0 24 24" fill="none" xmlns="http://www.w3.org/2000/svg">
    <path d="M10.0375 18.75C9.51973 18.75 9.1 18.3303 9.1 17.8125C9.1 17.2947 9.51973 16.875 10.0375 16.875H11.05C10.85 14.6083 9.90417 12.7313 8.2125 11.2438C6.75632 9.96331 5.08093 9.23398 3.18634 9.05574C2.67085 9.00724 2.25 8.59277 2.25 8.075C2.25 7.55723 2.67048 7.13318 3.18658 7.17473C4.92683 7.31484 6.54381 7.85035 8.0375 8.78125C9.79583 9.87708 11.1167 11.375 12 13.275C12.6083 11.95 13.4229 10.7812 14.4438 9.76875C15.4646 8.75625 16.6 7.875 17.85 7.125H14.925C14.4072 7.125 13.9875 6.70527 13.9875 6.1875C13.9875 5.66973 14.4072 5.25 14.925 5.25H19.75C20.3023 5.25 20.75 5.69772 20.75 6.25V11C20.75 11.5178 20.3303 11.9375 19.8125 11.9375C19.2947 11.9375 18.875 11.5178 18.875 11V8.7C17.325 9.625 15.9917 10.775 14.875 12.15C13.7583 13.525 13.1083 15.1 12.925 16.875H13.95C14.4678 16.875 14.8875 17.2947 14.8875 17.8125C14.8875 18.3303 14.4678 18.75 13.95 18.75H10.0375Z" fill="currentColor"/>
</svg>
