<svg width="1em" height="1em" viewBox="0 0 24 24" fill="none" xmlns="http://www.w3.org/2000/svg">
    <path d="M12.9375 11.0625H19.825C19.6 9.2375 18.8521 7.68958 17.5813 6.41875C16.3104 5.14792 14.7625 4.4 12.9375 4.175V11.0625ZM11.0625 19.825V4.175C9.07083 4.41667 7.41667 5.27917 6.1 6.7625C4.78333 8.24583 4.125 9.99167 4.125 12C4.125 14.0083 4.78333 15.7542 6.1 17.2375C7.41667 18.7208 9.07083 19.5833 11.0625 19.825ZM12.9375 19.825C14.7458 19.6083 16.2917 18.8583 17.575 17.575C18.8583 16.2917 19.6083 14.7458 19.825 12.9375H12.9375V19.825ZM11.998 21.75C10.6493 21.75 9.38333 21.4937 8.2 20.9813C7.01667 20.4688 5.9855 19.7738 5.1065 18.8962C4.22767 18.0187 3.53183 16.9868 3.019 15.8005C2.50633 14.6143 2.25 13.3468 2.25 11.998C2.25 10.6493 2.50625 9.38333 3.01875 8.2C3.53125 7.01667 4.22625 5.9855 5.10375 5.1065C5.98125 4.22767 7.01317 3.53183 8.1995 3.019C9.38567 2.50633 10.6532 2.25 12.002 2.25C13.3507 2.25 14.6139 2.50592 15.7917 3.01775C16.9696 3.52958 18.0012 4.22833 18.8867 5.114C19.7721 5.99967 20.4706 7.03158 20.9823 8.20975C21.4941 9.38792 21.75 10.6513 21.75 12C21.75 13.3417 21.4937 14.6042 20.9813 15.7875C20.4688 16.9708 19.7738 18.0048 18.8962 18.8892C18.0187 19.7739 16.9869 20.4718 15.8008 20.983C14.6144 21.4943 13.3468 21.75 11.998 21.75Z" fill="currentColor"/>
</svg>
