<svg width="1em" height="1em" viewBox="0 0 16 16" fill="none" xmlns="http://www.w3.org/2000/svg">
<path d="M7.99172 9.28336C7.63879 9.28336 7.33668 9.1577 7.08537 8.90637C6.83404 8.65506 6.70838 8.35295 6.70838 8.00002C6.70838 7.6471 6.83404 7.34499 7.08537 7.09367C7.33668 6.84235 7.63879 6.71669 7.99172 6.71669C8.34464 6.71669 8.64675 6.84235 8.89807 7.09367C9.14939 7.34499 9.27505 7.6471 9.27505 8.00002C9.27505 8.35295 9.14939 8.65506 8.89807 8.90637C8.64675 9.1577 8.34464 9.28336 7.99172 9.28336ZM7.99458 13.85C6.49267 13.85 5.18894 13.3556 4.08338 12.3667C2.97783 11.3778 2.34172 10.1389 2.17505 8.65002H3.45838C3.61394 9.78891 4.12092 10.732 4.97933 11.4792C5.83775 12.2264 6.84106 12.6 7.98925 12.6C9.26867 12.6 10.3556 12.1528 11.25 11.2584C12.1445 10.3639 12.5917 9.27651 12.5917 7.99616C12.5917 6.7158 12.1438 5.62969 11.2479 4.73782C10.3521 3.84596 9.26112 3.40002 7.97505 3.40002C7.22866 3.40002 6.53095 3.57364 5.88193 3.92086C5.2329 4.26808 4.68616 4.73891 4.24172 5.33336H6.02505V6.58336H2.20838V2.76669H3.45838V4.31669C4.01394 3.6278 4.68477 3.09447 5.47088 2.71669C6.25699 2.33891 7.09255 2.15002 7.97755 2.15002C8.78699 2.15002 9.54842 2.30476 10.2618 2.61422C10.9752 2.9237 11.5961 3.34176 12.1243 3.86839C12.6526 4.39504 13.0709 5.01254 13.3792 5.72089C13.6875 6.42925 13.8417 7.18897 13.8417 8.00006C13.8417 8.81115 13.6875 9.57086 13.3792 10.2792C13.0709 10.9875 12.6528 11.6056 12.125 12.1334C11.5973 12.6611 10.9795 13.0792 10.2718 13.3875C9.56404 13.6959 8.80497 13.85 7.99458 13.85Z" fill="currentColor"/>
</svg>
