<svg width="1em" height="1em" viewBox="0 0 16 20" fill="none" xmlns="http://www.w3.org/2000/svg">
<path d="M6.75 13.175L12.25 7.675L10.9125 6.3375L6.75 10.5L4.65 8.4L3.3125 9.7375L6.75 13.175ZM7.775 19.5C5.5235 18.93 3.66475 17.6313 2.19875 15.604C0.732917 13.5765 0 11.3252 0 8.85V2.925L7.775 0L15.55 2.925V8.85C15.55 11.3252 14.8171 13.5765 13.3512 15.604C11.8853 17.6313 10.0265 18.93 7.775 19.5ZM7.775 17.5375C9.48333 16.9875 10.8938 15.8992 12.0063 14.2725C13.1188 12.6457 13.675 10.8382 13.675 8.85V4.20975L7.775 2L1.875 4.20975V8.85C1.875 10.8382 2.43125 12.6457 3.54375 14.2725C4.65625 15.8992 6.06667 16.9875 7.775 17.5375Z" fill="currentColor"/>
</svg>
