<svg width="1em" height="1em" viewBox="0 0 20 20" fill="none" xmlns="http://www.w3.org/2000/svg">
<path d="M14.0104 16.4587C13.7951 16.4587 13.6111 16.3823 13.4583 16.2295C13.3055 16.0767 13.2291 15.8927 13.2291 15.6774V11.8232C13.2291 11.608 13.3055 11.4239 13.4583 11.2712C13.6111 11.1184 13.7951 11.042 14.0104 11.042H15.677C15.8923 11.042 16.0763 11.1184 16.2291 11.2712C16.3819 11.4239 16.4583 11.608 16.4583 11.8232V15.6774C16.4583 15.8927 16.3819 16.0767 16.2291 16.2295C16.0763 16.3823 15.8923 16.4587 15.677 16.4587H14.0104ZM9.16663 16.4587C8.95135 16.4587 8.76732 16.3823 8.61454 16.2295C8.46177 16.0767 8.38538 15.8927 8.38538 15.6774V4.32324C8.38538 4.10796 8.46177 3.92394 8.61454 3.77116C8.76732 3.61838 8.95135 3.54199 9.16663 3.54199H10.8333C11.0486 3.54199 11.2326 3.61838 11.3854 3.77116C11.5382 3.92394 11.6145 4.10796 11.6145 4.32324V15.6774C11.6145 15.8927 11.5382 16.0767 11.3854 16.2295C11.2326 16.3823 11.0486 16.4587 10.8333 16.4587H9.16663ZM4.32288 16.4587C4.1076 16.4587 3.92357 16.3823 3.77079 16.2295C3.61801 16.0767 3.54163 15.8927 3.54163 15.6774V8.48991C3.54163 8.27463 3.61801 8.0906 3.77079 7.93783C3.92357 7.78505 4.1076 7.70866 4.32288 7.70866H5.98954C6.20482 7.70866 6.38885 7.78505 6.54163 7.93783C6.6944 8.0906 6.77079 8.27463 6.77079 8.48991V15.6774C6.77079 15.8927 6.6944 16.0767 6.54163 16.2295C6.38885 16.3823 6.20482 16.4587 5.98954 16.4587H4.32288Z" fill="currentColor"/>
</svg>
