<svg width="1em" height="1em" viewBox="0 0 24 24" fill="none" xmlns="http://www.w3.org/2000/svg">
    <path d="M2.04997 11.544C2.09807 11.5193 2.14617 11.4971 2.1931 11.4748C3.00962 11.0958 3.83786 10.7415 4.66611 10.3873C4.71069 10.3873 4.78577 10.3356 4.82801 10.318L5.01923 10.2359C5.14241 10.1831 5.26442 10.1315 5.3876 10.0787C5.63279 9.9743 5.87798 9.86872 6.12434 9.76431C6.61472 9.55431 7.10628 9.34432 7.59666 9.13432C8.57859 8.71433 9.56052 8.29434 10.5424 7.87435C11.5244 7.45436 12.5063 7.03438 13.4882 6.61439C14.4702 6.1944 15.4521 5.77441 16.434 5.35442C17.416 4.93443 18.3979 4.51444 19.3798 4.09445C19.598 4.00059 19.835 3.86099 20.0685 3.81993C20.2656 3.78473 20.4568 3.71669 20.6539 3.67915C21.0293 3.60759 21.4422 3.57826 21.8012 3.73429C21.9256 3.78825 22.0394 3.86451 22.1356 3.95953C22.5908 4.4112 22.5274 5.15146 22.4312 5.78496C21.759 10.2054 21.0879 14.6259 20.4157 19.0463C20.323 19.6528 20.1987 20.318 19.72 20.7016C19.3153 21.0254 18.7381 21.063 18.2383 20.9245C17.7386 20.7861 17.2963 20.4952 16.8646 20.2089C15.0685 19.0205 13.2736 17.8309 11.4775 16.6425C11.0504 16.3598 10.5753 15.9914 10.58 15.4799C10.5835 15.1714 10.7677 14.8969 10.9554 14.6517C12.5145 12.6174 14.767 11.2178 16.4422 9.27628C16.6781 9.00293 16.8646 8.50786 16.5396 8.35066C16.3472 8.2568 16.1243 8.3835 15.9484 8.50669C13.7346 10.0447 11.522 11.5827 9.30829 13.1207C8.58563 13.6228 7.82894 14.1378 6.95846 14.2622C6.18066 14.3725 5.39581 14.1554 4.64148 13.9349C4.01032 13.7495 3.37916 13.5583 2.75035 13.3624C2.41717 13.258 2.07226 13.1465 1.81417 12.9119C1.55608 12.6773 1.40826 12.2819 1.56311 11.9687C1.66049 11.7728 1.85054 11.6472 2.0488 11.5475L2.04997 11.544Z" fill="currentColor"/>
</svg>
