<svg width="1em" height="1em" viewBox="0 0 25 23" fill="none" xmlns="http://www.w3.org/2000/svg">
<path d="M22.3542 7.50835C22.9278 7.50835 23.4358 7.72953 23.8781 8.17189C24.3205 8.61425 24.5417 9.12224 24.5417 9.69585V11.9709C24.5417 12.107 24.5295 12.2504 24.5052 12.4011C24.4809 12.5518 24.4445 12.6903 24.3958 12.8167L20.9542 20.8375C20.7889 21.2264 20.5045 21.5521 20.101 21.8146C19.6976 22.0771 19.282 22.2084 18.8542 22.2084H9.37501C8.77223 22.2084 8.25695 21.9945 7.82917 21.5667C7.4014 21.1389 7.18751 20.6236 7.18751 20.0209V8.41252C7.18751 8.12085 7.24584 7.84134 7.36251 7.57398C7.47917 7.30661 7.63959 7.07085 7.84376 6.86668L13.8375 0.887518C14.1486 0.586129 14.5083 0.403837 14.9167 0.340643C15.325 0.277448 15.7042 0.347934 16.0542 0.552101C16.4042 0.756268 16.657 1.04793 16.8125 1.4271C16.9681 1.80627 16.9972 2.20002 16.9 2.60835L15.7042 7.50835H22.3542ZM2.82709 22.2084C2.22431 22.2084 1.71147 21.9969 1.28855 21.574C0.865633 21.1511 0.654175 20.6382 0.654175 20.0354V9.68127C0.654175 9.07849 0.865633 8.56564 1.28855 8.14273C1.71147 7.71981 2.22431 7.50835 2.82709 7.50835C3.42987 7.50835 3.94272 7.71981 4.36563 8.14273C4.78855 8.56564 5.00001 9.07849 5.00001 9.68127V20.0354C5.00001 20.6382 4.78855 21.1511 4.36563 21.574C3.94272 21.9969 3.42987 22.2084 2.82709 22.2084Z" fill="currentColor" />
</svg>
