<svg width="2.4rem" height="2rem" viewBox="0 0 37 20" fill="none" xmlns="http://www.w3.org/2000/svg">
<g clip-path="url(#clip0_22039_13081)">
<path d="M27.0018 0H9.99822C4.47635 0 0 4.47715 0 10C0 15.5228 4.47635 20 9.99822 20H27.0018C32.5236 20 37 15.5228 37 10C37 4.47715 32.5236 0 27.0018 0Z" fill="#303030"/>
<path d="M5.80078 5.14062H16.572V10.5586C16.572 11.9477 15.8304 13.2314 14.6286 13.926L11.1864 15.9137L7.74418 13.926C6.54075 13.2314 5.80078 11.9477 5.80078 10.5586V5.14062Z" fill="#FFDD2D"/>
<path fill-rule="evenodd" clip-rule="evenodd" d="M8.75548 7.99219V9.67666C8.98642 9.41582 9.40432 9.23983 9.8835 9.23983H10.4035V11.1993C10.4035 11.721 10.2621 12.1767 10.0516 12.4281H12.3155C12.1065 12.1767 11.9652 11.721 11.9652 11.2009V9.2414H12.4852C12.9643 9.2414 13.3838 9.41739 13.6132 9.67823V7.99376H8.75391L8.75548 7.99219Z" fill="#333333"/>
<path d="M22.7207 13.3964V7.0293H20.7129V13.3964H22.7207Z" fill="white"/>
<path d="M27.5594 13.3964C30.0998 13.3964 31.3566 12.045 31.3566 10.2128C31.3566 8.38065 30.0982 7.0293 27.773 7.0293H24.1895V13.3964H27.5609H27.5594ZM27.3567 8.5535C28.7345 8.5535 29.3095 9.16946 29.3095 10.2128C29.3095 11.1761 28.7361 11.9114 27.3567 11.9114H26.1266V8.5535H27.3567Z" fill="white"/>
</g>
<defs>
<clipPath id="clip0_22039_13081">
<rect width="37" height="20" fill="white"/>
</clipPath>
</defs>
</svg>
