<svg width="1em" height="1em" viewBox="0 0 12 12" xmlns="http://www.w3.org/2000/svg">
<path d="M1.45624 8.73124C1.36041 8.63541 1.31353 8.52395 1.31562 8.39687C1.3177 8.26979 1.36458 8.16041 1.45624 8.06874L4.05624 5.44374C4.23541 5.26458 4.45728 5.17499 4.72187 5.17499C4.98645 5.17499 5.20833 5.26458 5.38749 5.44374L6.68124 6.74999L9.28749 4.18124H8.44374C8.31458 4.18124 8.20416 4.13541 8.11249 4.04374C8.02083 3.95208 7.97499 3.84166 7.97499 3.71249C7.97499 3.58333 8.02083 3.47291 8.11249 3.38124C8.20416 3.28958 8.31458 3.24374 8.44374 3.24374H10.4062C10.5354 3.24374 10.6458 3.28958 10.7375 3.38124C10.8292 3.47291 10.875 3.58333 10.875 3.71249V5.67499C10.875 5.80416 10.8292 5.91458 10.7375 6.00624C10.6458 6.09791 10.5354 6.14374 10.4062 6.14374C10.2771 6.14374 10.1667 6.09791 10.075 6.00624C9.98333 5.91458 9.93749 5.80416 9.93749 5.67499V4.83124L7.34999 7.41874C7.17083 7.59791 6.94895 7.68749 6.68437 7.68749C6.41979 7.68749 6.19791 7.59791 6.01874 7.41874L4.72499 6.12499L2.11874 8.72499C2.02708 8.81666 1.91666 8.86249 1.78749 8.86249C1.65833 8.86249 1.54791 8.81874 1.45624 8.73124Z" fill="currentColor"/>
</svg>
