<svg width="1em" height="1em" viewBox="0 0 12 12" xmlns="http://www.w3.org/2000/svg">
<path d="M9.28749 7.96875L6.68124 5.4L5.38749 6.69375C5.20833 6.87291 4.98645 6.9625 4.72187 6.9625C4.45728 6.9625 4.23541 6.87291 4.05624 6.69375L1.45624 4.08125C1.36458 3.98958 1.3177 3.8802 1.31562 3.75312C1.31353 3.62604 1.36041 3.51458 1.45624 3.41875C1.54791 3.33125 1.65833 3.28645 1.78749 3.28437C1.91666 3.28229 2.02708 3.32708 2.11874 3.41875L4.72499 6.025L6.01874 4.73125C6.19791 4.55208 6.41979 4.4625 6.68437 4.4625C6.94895 4.4625 7.17083 4.55208 7.34999 4.73125L9.93749 7.31875V6.475C9.93749 6.34583 9.98333 6.23541 10.075 6.14375C10.1667 6.05208 10.2771 6.00625 10.4062 6.00625C10.5354 6.00625 10.6458 6.05208 10.7375 6.14375C10.8292 6.23541 10.875 6.34583 10.875 6.475V8.4375C10.875 8.56666 10.8292 8.67708 10.7375 8.76875C10.6458 8.86041 10.5354 8.90625 10.4062 8.90625H8.44374C8.31458 8.90625 8.20416 8.86041 8.11249 8.76875C8.02083 8.67708 7.97499 8.56666 7.97499 8.4375C7.97499 8.30833 8.02083 8.19791 8.11249 8.10625C8.20416 8.01458 8.31458 7.96875 8.44374 7.96875H9.28749Z" fill="currentColor"/>
</svg>
