<svg width="1em" height="1em" viewBox="0 0 20 20" fill="none" xmlns="http://www.w3.org/2000/svg">
<path d="M4.26953 15.5833V15.75V4.25V15.5833ZM4.26953 17.3125C3.83981 17.3125 3.47196 17.1595 3.16599 16.8535C2.86002 16.5476 2.70703 16.1797 2.70703 15.75V4.25C2.70703 3.82028 2.86002 3.45243 3.16599 3.14646C3.47196 2.84049 3.83981 2.6875 4.26953 2.6875H15.7487C16.1784 2.6875 16.5463 2.84049 16.8522 3.14646C17.1582 3.45243 17.3112 3.82028 17.3112 4.25V6.39583H15.7487V4.25H4.26953V15.75H15.7487V13.6042H17.3112V15.75C17.3112 16.1797 17.1582 16.5476 16.8522 16.8535C16.5463 17.1595 16.1784 17.3125 15.7487 17.3125H4.26953ZM10.8727 14.0208C10.4289 14.0208 10.0508 13.8638 9.73828 13.5496C9.42578 13.2354 9.26953 12.8578 9.26953 12.4167V7.58146C9.26953 7.13826 9.42661 6.76042 9.74078 6.44792C10.0549 6.13542 10.4326 5.97917 10.8737 5.97917H16.5206C16.9643 5.97917 17.3424 6.13625 17.6549 6.45042C17.9674 6.76458 18.1237 7.14222 18.1237 7.58333V12.4185C18.1237 12.8617 17.9666 13.2396 17.6524 13.5521C17.3383 13.8646 16.9606 14.0208 16.5195 14.0208H10.8727ZM16.5612 12.4583V7.54167H10.832V12.4583H16.5612ZM13.2891 11.2292C13.6302 11.2292 13.9206 11.1098 14.1602 10.871C14.3997 10.6323 14.5195 10.3424 14.5195 10.0013C14.5195 9.66014 14.4002 9.36979 14.1614 9.13021C13.9227 8.89062 13.6327 8.77083 13.2916 8.77083C12.9505 8.77083 12.6602 8.89021 12.4206 9.12896C12.181 9.36771 12.0612 9.65764 12.0612 9.99875C12.0612 10.3399 12.1806 10.6302 12.4193 10.8698C12.6581 11.1094 12.948 11.2292 13.2891 11.2292Z" fill="currentColor" fill-opacity="0.88"/>
</svg>
