<svg width="1em" height="1em" viewBox="0 0 16 16" fill="none" xmlns="http://www.w3.org/2000/svg">
<path d="M15.0673 7.66532C15.0005 5.83709 14.2301 4.10537 12.9168 2.83171C11.6036 1.55805 9.84916 0.840921 8.01978 0.83008H7.98523C6.75327 0.829165 5.54236 1.14901 4.47153 1.75814C3.40072 2.36726 2.50694 3.24468 1.87815 4.30406C1.24936 5.36345 0.90722 6.56831 0.885391 7.80003C0.863564 9.0318 1.1628 10.248 1.75366 11.329L1.12626 15.0833C1.12524 15.091 1.12587 15.0988 1.12811 15.1063C1.13035 15.1137 1.13415 15.1206 1.13926 15.1265C1.14436 15.1323 1.15066 15.137 1.15772 15.1402C1.16478 15.1435 1.17245 15.1452 1.18022 15.1452H1.19102L4.90434 14.3192C5.86378 14.7798 6.91446 15.0189 7.97874 15.0186C8.04641 15.0186 8.11402 15.0186 8.18164 15.0186C9.11784 14.9918 10.0395 14.78 10.8933 14.3952C11.7472 14.0104 12.5164 13.4603 13.1566 12.7767C13.7968 12.093 14.2952 11.2894 14.6232 10.4121C14.9511 9.53478 15.102 8.60125 15.0673 7.66532ZM8.14637 13.7846C8.09026 13.7846 8.03414 13.7846 7.97874 13.7846C7.03814 13.7858 6.111 13.5607 5.2756 13.1284L5.08565 13.0291L2.56742 13.6242L3.03221 11.0764L2.92429 10.8937C2.40882 10.0149 2.13118 9.01691 2.1187 7.9981C2.10622 6.97934 2.35934 5.97485 2.85312 5.08367C3.3469 4.19246 4.06431 3.44525 4.9347 2.91564C5.80509 2.38602 6.79841 2.09226 7.81689 2.0633C7.87348 2.0633 7.93031 2.0633 7.98738 2.0633C9.52506 2.06786 10.9994 2.67629 12.0927 3.75751C13.1861 4.83872 13.8109 6.3062 13.8326 7.84369C13.8543 9.38123 13.2711 10.8657 12.2088 11.9774C11.1463 13.089 9.68978 13.7388 8.15286 13.7868L8.14637 13.7846Z" fill="currentColor" fill-opacity="0.88"/>
<path d="M5.51222 4.5002C5.42456 4.50192 5.33812 4.5212 5.25804 4.55692C5.17796 4.59263 5.10585 4.64406 5.046 4.70814C4.87692 4.88154 4.40421 5.29885 4.37686 6.1752C4.34953 7.05152 4.96182 7.91854 5.04744 8.04013C5.13306 8.16171 6.21805 10.0547 8.00529 10.8224C9.05578 11.275 9.51625 11.3527 9.81481 11.3527C9.93788 11.3527 10.0307 11.3398 10.1278 11.334C10.4552 11.3138 11.1941 10.9354 11.3553 10.5238C11.5165 10.1123 11.5272 9.75255 11.4848 9.68059C11.4423 9.60863 11.3258 9.55681 11.1502 9.46472C10.9747 9.37262 10.1134 8.91216 9.95152 8.8474C9.8915 8.81944 9.82689 8.80264 9.76085 8.79778C9.71785 8.80002 9.67605 8.81271 9.63907 8.83481C9.60209 8.85685 9.57103 8.88763 9.5486 8.92437C9.40473 9.10355 9.07448 9.49278 8.96364 9.60505C8.93944 9.63292 8.90962 9.6554 8.87617 9.67105C8.84272 9.68665 8.80631 9.69505 8.76938 9.69572C8.70134 9.69271 8.63477 9.67477 8.57441 9.64318C8.05272 9.42163 7.57708 9.10436 7.1721 8.70783C6.7937 8.33487 6.47266 7.9079 6.21948 7.4408C6.12166 7.25948 6.21948 7.16595 6.30871 7.08106C6.39794 6.99613 6.49361 6.87888 6.58571 6.77739C6.66129 6.69074 6.72428 6.59387 6.7728 6.48961C6.7979 6.44122 6.8106 6.38735 6.80969 6.33286C6.80883 6.27832 6.79442 6.22492 6.76775 6.17735C6.72533 6.08669 6.40801 5.19524 6.25908 4.83765C6.13822 4.53186 5.9943 4.52179 5.86838 4.51244C5.76478 4.50524 5.64606 4.50164 5.52734 4.49805H5.51222" fill="currentColor" fill-opacity="0.88"/>
</svg>
