<svg width="1em" height="1em" viewBox="0 0 80 80" fill="none" xmlns="http://www.w3.org/2000/svg">
<path fill-rule="evenodd" clip-rule="evenodd" d="M12.7152 6.01869C10.9349 6.01869 9.22757 6.73157 7.96872 8.00051C6.70987 9.26945 6.00265 10.9905 6.00265 12.785V64.2243C6.00265 69.6129 10.3363 73.9813 15.6821 73.9813H51.2848C53.0651 73.9813 54.7724 73.2684 56.0313 71.9995C57.2901 70.7306 57.9974 69.0095 57.9974 67.215V24.8667L39.2991 6.01869H12.7152ZM6.55263 6.57308C8.18705 4.92556 10.4038 4 12.7152 4H39.7139C39.9795 4 40.2342 4.10634 40.422 4.29563L59.7067 23.7349C59.8945 23.9242 60 24.1809 60 24.4486V67.215C60 69.5449 59.0818 71.7794 57.4474 73.4269C55.8129 75.0744 53.5962 76 51.2848 76H15.6821C9.23026 76 4 70.7278 4 64.2243V12.785C4 10.4551 4.91821 8.2206 6.55263 6.57308ZM36.6384 8.94537C37.1914 8.94537 37.6397 9.39727 37.6397 9.95471V23.9446C37.6397 24.6045 37.8998 25.2373 38.3627 25.704C38.8256 26.1706 39.4534 26.4327 40.1081 26.4327H53.9868C54.5398 26.4327 54.9881 26.8846 54.9881 27.4421C54.9881 27.9995 54.5398 28.4514 53.9868 28.4514H40.1081C38.9223 28.4514 37.7851 27.9766 36.9466 27.1314C36.1081 26.2862 35.6371 25.1399 35.6371 23.9446V9.95471C35.6371 9.39727 36.0854 8.94537 36.6384 8.94537Z" fill="#251D35" fill-opacity="0.88"/>
<path fill-rule="evenodd" clip-rule="evenodd" d="M75.0519 45.7706C74.304 45.7533 73.2379 45.8996 71.846 46.1833C61.5528 48.2807 48.6051 53.826 40.8695 62.7843C40.8668 62.7885 40.8632 62.7942 40.8585 62.8014C40.8442 62.8237 40.8202 62.8611 40.7839 62.9185C40.7167 63.0247 40.628 63.1664 40.5261 63.3293L40.5224 63.3352C40.3206 63.6576 40.07 64.0579 39.8514 64.3985C39.7417 64.5695 39.6372 64.7298 39.5494 64.8597C39.4752 64.9694 39.3772 65.1117 39.2935 65.2051L39.2921 65.2067C39.275 65.2258 39.2085 65.3003 39.111 65.3665L39.1092 65.3677C39.0734 65.3921 38.9091 65.504 38.6671 65.5196C38.5189 65.5291 38.3223 65.5028 38.1326 65.3804C37.9457 65.2597 37.8441 65.0961 37.7926 64.97C37.7068 64.7599 37.7266 64.5759 37.7311 64.534L37.7313 64.5322C37.7387 64.4638 37.7523 64.4093 37.76 64.3808C37.7762 64.3214 37.7958 64.2701 37.8082 64.2393C37.8564 64.1188 37.9437 63.9417 38.0575 63.7216C38.2675 63.3152 38.5697 62.5544 38.7327 61.795C38.8139 61.4169 38.8531 61.0725 38.8427 60.7915C38.8347 60.5743 38.7988 60.4413 38.7659 60.3662C38.7331 60.3677 38.6835 60.3735 38.6118 60.3888C38.3112 60.4529 37.8775 60.6476 37.341 60.977C36.342 61.5906 35.2189 62.5247 34.3669 63.3145C34.2869 63.5095 34.2046 63.7084 34.1196 63.9124C33.8133 64.6479 33.5231 65.1821 33.2533 65.5369C33.1224 65.7091 32.9605 65.887 32.7635 66.0144C32.5927 66.1248 32.1674 66.3337 31.7011 66.0894C31.2623 65.8596 31.1732 65.4235 31.1534 65.2475C31.1289 65.0292 31.1591 64.8144 31.2032 64.6338C31.2942 64.2618 31.4907 63.8471 31.7839 63.4502C31.9705 63.1975 32.3824 62.7648 32.8823 62.2872C33.4358 60.9197 33.8686 59.7374 34.335 58.2177C34.4491 57.846 34.6245 57.2305 34.7571 56.6125C34.8983 55.954 34.9589 55.4305 34.9258 55.1745C34.9191 55.1231 34.9114 55.0829 34.9039 55.0518C34.8978 55.0531 34.8914 55.0545 34.8846 55.0561C34.4986 55.1465 33.8208 55.5479 32.8987 56.3375C31.1276 57.854 28.9007 60.4054 26.9894 63.0196C26.4009 64.1378 25.8612 64.939 25.511 65.3807C25.422 65.4928 25.3359 65.5937 25.2572 65.6747C25.2191 65.7138 25.1696 65.762 25.1129 65.8074C25.0848 65.83 25.0421 65.8623 24.9881 65.8943C24.9463 65.919 24.8355 65.9819 24.6803 66.0099C24.5163 66.0395 24.1464 66.0478 23.8605 65.7288C23.623 65.4639 23.6287 65.1648 23.6326 65.0832C23.6412 64.9009 23.7051 64.7564 23.721 64.7203L23.7225 64.717C23.7722 64.6038 23.8441 64.4839 23.9134 64.3765C24.3989 63.6237 24.9309 62.8505 25.491 62.0805C26.1586 60.7937 26.9054 59.0362 27.4795 56.8718C27.7163 55.7724 28.027 54.0815 28.1414 52.4095C28.199 51.5686 28.2055 50.7516 28.1339 50.0277C28.0957 49.641 28.0366 49.2966 27.9581 48.9977C27.6055 49.2559 27.1717 49.6229 26.7204 50.0297C26.1992 50.4994 25.6824 50.9971 25.2863 51.3875C25.0887 51.5823 24.9222 51.7493 24.8017 51.8713C24.7414 51.9324 24.6928 51.982 24.6577 52.018L24.616 52.0609C24.609 52.0682 24.6048 52.0725 24.6029 52.0745C24.6017 52.0757 24.6014 52.0762 24.6016 52.0759C20.4003 56.553 16.9467 61.1228 14.0738 66.5316C13.8448 66.9627 13.3114 67.1257 12.8823 66.8957C12.4532 66.6657 12.2909 66.1298 12.5199 65.6988C15.4801 60.1257 19.0335 55.4302 23.32 50.8623L23.9608 51.4691L23.32 50.8623C23.3979 50.7793 24.4547 49.6949 25.5441 48.7129C26.0843 48.226 26.6631 47.7362 27.1466 47.4084C27.3773 47.252 27.6493 47.0883 27.9175 47.0015C28.048 46.9593 28.2623 46.9065 28.5073 46.9449C28.8017 46.9911 29.0941 47.1656 29.26 47.4828C29.6213 48.1731 29.8031 49.0082 29.8866 49.8529C29.971 50.7071 29.9602 51.6295 29.8985 52.5309C29.7751 54.3332 29.4425 56.1275 29.1964 57.2668L29.1921 57.2867L29.1869 57.3064C29.1591 57.4115 29.1309 57.5158 29.1024 57.6191C30.0212 56.6052 30.9267 55.7013 31.7562 54.9911C32.6889 54.1924 33.6481 53.5291 34.4847 53.3331C34.926 53.2298 35.4772 53.2247 35.9527 53.5728C36.4182 53.9136 36.6074 54.4457 36.6723 54.9461C36.7493 55.5406 36.6172 56.3401 36.4788 56.9851C36.3318 57.6706 36.1409 58.3388 36.0181 58.7389L35.1765 58.4783L36.0181 58.7389C35.881 59.1855 35.7466 59.6043 35.6114 60.0072C35.8827 59.814 36.1548 59.6319 36.4224 59.4676C37.014 59.1042 37.6512 58.785 38.2461 58.6581C38.8362 58.5323 39.6521 58.557 40.1662 59.2784C40.4267 59.6439 40.5417 60.0676 40.5843 60.4657C48.7396 51.7938 61.4305 46.5003 71.4958 44.4494C72.9045 44.1623 74.1346 43.9797 75.0924 44.0018C75.9753 44.0222 77.0337 44.2272 77.4932 45.1729C77.7066 45.6119 77.5252 46.1416 77.0882 46.3559C76.6511 46.5702 76.1238 46.3881 75.9105 45.949C75.9098 45.9477 75.9096 45.9475 75.9095 45.9473C75.9094 45.9471 75.9075 45.9447 75.9022 45.9401C75.8914 45.9308 75.8616 45.9088 75.7976 45.8831C75.6605 45.828 75.4249 45.7792 75.0519 45.7706ZM39.4423 64.8993C39.4424 64.8989 39.4426 64.8986 39.4427 64.8982C39.4418 64.9008 39.4415 64.9012 39.4423 64.8993ZM23.9914 64.4442C23.9916 64.444 23.992 64.4437 23.9925 64.4432C23.9914 64.4443 23.991 64.4447 23.9914 64.4442ZM34.9997 55.0407C34.9997 55.0408 34.9978 55.0408 34.9943 55.0402C34.9981 55.0403 34.9998 55.0406 34.9997 55.0407ZM34.8737 54.963C34.8724 54.9612 34.8719 54.9602 34.8719 54.9602C34.872 54.9601 34.8726 54.961 34.8737 54.963ZM38.8204 60.3706C38.8195 60.3715 38.8123 60.371 38.8013 60.3664C38.8158 60.3675 38.8212 60.3698 38.8204 60.3706Z" fill="#251D35" fill-opacity="0.88"/>
</svg>
