<svg width="1em" height="1em" viewBox="0 0 40 40" fill="none" xmlns="http://www.w3.org/2000/svg">
    <path fill-rule="evenodd" clip-rule="evenodd" d="M9.8 2.6C8.95131 2.6 8.13737 2.93714 7.53726 3.53726C6.93714 4.13737 6.6 4.95131 6.6 5.8V15.8C6.6 16.2418 6.24183 16.6 5.8 16.6C5.35817 16.6 5 16.2418 5 15.8V5.8C5 4.52696 5.50571 3.30606 6.40589 2.40589C7.30606 1.50571 8.52696 1 9.8 1H23.8C24.0122 1 24.2157 1.08429 24.3657 1.23431L34.3657 11.2343C34.5157 11.3843 34.6 11.5878 34.6 11.8V19.8C34.6 20.2418 34.2418 20.6 33.8 20.6C33.3582 20.6 33 20.2418 33 19.8V12.1314L23.4686 2.6H9.8ZM22.8 4C23.2418 4 23.6 4.35817 23.6 4.8V11.2C23.6 11.4122 23.6843 11.6157 23.8343 11.7657C23.9843 11.9157 24.1878 12 24.4 12H30.8C31.2418 12 31.6 12.3582 31.6 12.8C31.6 13.2418 31.2418 13.6 30.8 13.6H24.4C23.7635 13.6 23.153 13.3471 22.7029 12.8971C22.2529 12.447 22 11.8365 22 11.2V4.8C22 4.35817 22.3582 4 22.8 4ZM10 6.8C10 6.35817 10.3582 6 10.8 6H17.8C18.2418 6 18.6 6.35817 18.6 6.8C18.6 7.24183 18.2418 7.6 17.8 7.6H10.8C10.3582 7.6 10 7.24183 10 6.8ZM10 11.8C10 11.3582 10.3582 11 10.8 11H17.8C18.2418 11 18.6 11.3582 18.6 11.8C18.6 12.2418 18.2418 12.6 17.8 12.6H10.8C10.3582 12.6 10 12.2418 10 11.8ZM12.9617 19.5751C13.2194 19.4548 13.5216 19.4804 13.7554 19.6422L19.7813 23.814L23.32 21.16C23.5361 20.9979 23.8195 20.9558 24.0734 21.0482L29.5734 23.0482C29.9886 23.1992 30.2028 23.6582 30.0518 24.0734C29.9008 24.4886 29.4418 24.7028 29.0266 24.5518L23.9336 22.6998L20.28 25.44C20.0045 25.6466 19.6277 25.6538 19.3446 25.4578L13.2222 21.2191L6.6 24.3095V33.8C6.6 35.5673 8.03269 37 9.8 37H29.8C30.6487 37 31.4626 36.6629 32.0627 36.0627C32.6629 35.4626 33 34.6487 33 33.8V27.8C33 27.3582 33.3582 27 33.8 27C34.2418 27 34.6 27.3582 34.6 27.8V33.8C34.6 35.073 34.0943 36.2939 33.1941 37.1941C32.2939 38.0943 31.073 38.6 29.8 38.6H9.8C7.14903 38.6 5 36.451 5 33.8V23.8C5 23.4892 5.18003 23.2065 5.46169 23.0751L12.9617 19.5751Z" fill="currentColor" fill-opacity="0.45"/>
</svg>
