<svg width="1em" height="1em" viewBox="0 0 40 40" fill="none" xmlns="http://www.w3.org/2000/svg">
    <path fill-rule="evenodd" clip-rule="evenodd" d="M9.8 2.6C8.95131 2.6 8.13737 2.93714 7.53726 3.53726C6.93714 4.13737 6.6 4.95131 6.6 5.8V33.8C6.6 35.5673 8.03269 37 9.8 37H29.8C30.6487 37 31.4626 36.6629 32.0627 36.0627C32.6629 35.4626 33 34.6487 33 33.8V12.1314L23.4686 2.6H9.8ZM6.40589 2.40589C7.30606 1.50571 8.52696 1 9.8 1H23.8C24.0122 1 24.2157 1.08429 24.3657 1.23431L34.3657 11.2343C34.5157 11.3843 34.6 11.5878 34.6 11.8V33.8C34.6 35.073 34.0943 36.2939 33.1941 37.1941C32.2939 38.0943 31.073 38.6 29.8 38.6H9.8C7.14903 38.6 5 36.451 5 33.8V5.8C5 4.52696 5.50571 3.30606 6.40589 2.40589ZM22.8 4C23.2418 4 23.6 4.35817 23.6 4.8V11.2C23.6 11.4122 23.6843 11.6157 23.8343 11.7657C23.9843 11.9157 24.1878 12 24.4 12H30.8C31.2418 12 31.6 12.3582 31.6 12.8C31.6 13.2418 31.2418 13.6 30.8 13.6H24.4C23.7635 13.6 23.153 13.3471 22.7029 12.8971C22.2529 12.447 22 11.8365 22 11.2V4.8C22 4.35817 22.3582 4 22.8 4ZM10 6.8C10 6.35817 10.3582 6 10.8 6H17.8C18.2418 6 18.6 6.35817 18.6 6.8C18.6 7.24183 18.2418 7.6 17.8 7.6H10.8C10.3582 7.6 10 7.24183 10 6.8ZM10 11.8C10 11.3582 10.3582 11 10.8 11H17.8C18.2418 11 18.6 11.3582 18.6 11.8C18.6 12.2418 18.2418 12.6 17.8 12.6H10.8C10.3582 12.6 10 12.2418 10 11.8ZM10 17.8C10 17.3582 10.3582 17 10.8 17H28.8C29.2418 17 29.6 17.3582 29.6 17.8C29.6 18.2418 29.2418 18.6 28.8 18.6H10.8C10.3582 18.6 10 18.2418 10 17.8ZM10 22.8C10 22.3582 10.3582 22 10.8 22H22.8C23.2418 22 23.6 22.3582 23.6 22.8C23.6 23.2418 23.2418 23.6 22.8 23.6H10.8C10.3582 23.6 10 23.2418 10 22.8Z" fill="currentColor" fill-opacity="0.45"/>
</svg>
