<svg width="1em" height="1em" viewBox="0 0 40 40" fill="none" xmlns="http://www.w3.org/2000/svg">
<path d="M10.2 18.8001H34V33C34 35.7614 31.9107 38 29.3333 38H10.6667C8.08934 38 6 35.7614 6 33V7.0002C6 4.23879 8.08931 2.00022 10.6666 2.0002L29.3333 2C31.9106 1.99997 34 4.23856 34 7.00001V14.9599" stroke="#251D35" stroke-opacity="0.45" stroke-width="1.5" stroke-linecap="round"/>
<path d="M18 22.7996C18 22.413 18.3134 22.0996 18.7 22.0996H29.3C29.6866 22.0996 30 22.413 30 22.7996C30 23.1862 29.6866 23.4996 29.3 23.4996H18.7C18.3134 23.4996 18 23.1862 18 22.7996Z" fill="#251D35" fill-opacity="0.45"/>
<path d="M18 28.7996C18 28.413 18.3134 28.0996 18.7 28.0996H29.3C29.6866 28.0996 30 28.413 30 28.7996C30 29.1862 29.6866 29.4996 29.3 29.4996H18.7C18.3134 29.4996 18 29.1862 18 28.7996Z" fill="#251D35" fill-opacity="0.45"/>
<path d="M19 25.7996C19 25.413 19.3134 25.0996 19.7 25.0996H28.3C28.6866 25.0996 29 25.413 29 25.7996C29 26.1862 28.6866 26.4996 28.3 26.4996H19.7C19.3134 26.4996 19 26.1862 19 25.7996Z" fill="#251D35" fill-opacity="0.45"/>
<path d="M13 31C12.45 31 11.9792 30.8042 11.5875 30.4125C11.1958 30.0208 11 29.55 11 29C11 28.45 11.1958 27.9792 11.5875 27.5875C11.9792 27.1958 12.45 27 13 27C13.55 27 14.0208 27.1958 14.4125 27.5875C14.8042 27.9792 15 28.45 15 29C15 29.55 14.8042 30.0208 14.4125 30.4125C14.0208 30.8042 13.55 31 13 31ZM9 34V33.6C9 33.3167 9.07292 33.0563 9.21875 32.8187C9.36458 32.5812 9.55833 32.4 9.8 32.275C10.3167 32.0167 10.8417 31.8229 11.375 31.6937C11.9083 31.5646 12.45 31.5 13 31.5C13.55 31.5 14.0917 31.5646 14.625 31.6937C15.1583 31.8229 15.6833 32.0167 16.2 32.275C16.4417 32.4 16.6354 32.5812 16.7812 32.8187C16.9271 33.0563 17 33.3167 17 33.6V34C17 34.275 16.9021 34.5104 16.7063 34.7063C16.5104 34.9021 16.275 35 16 35H10C9.725 35 9.48958 34.9021 9.29375 34.7063C9.09792 34.5104 9 34.275 9 34Z" fill="#251D35" fill-opacity="0.45"/>
</svg>
