<svg width="1em" height="1em" viewBox="0 0 40 40" fill="none" xmlns="http://www.w3.org/2000/svg">
<path d="M4 12C4 10.9185 4 9.91015 4 8.99873C4 6.23731 6.23858 4 9 4H12" stroke="#251D35" stroke-opacity="0.45" stroke-width="1.5" stroke-linecap="round"/>
<path d="M28 4C29.0815 4 30.0898 4 31.0013 4C33.7627 4 36 6.23858 36 9L36 12" stroke="#251D35" stroke-opacity="0.45" stroke-width="1.5" stroke-linecap="round"/>
<path d="M36 28C36 29.0815 36 30.0898 36 31.0013C36 33.7627 33.7614 36 31 36L28 36" stroke="#251D35" stroke-opacity="0.45" stroke-width="1.5" stroke-linecap="round"/>
<path d="M12 36C10.9185 36 9.91015 36 8.99873 36C6.23731 36 4 33.7614 4 31L4 28" stroke="#251D35" stroke-opacity="0.45" stroke-width="1.5" stroke-linecap="round"/>
<path d="M17 22C15.9 22 14.9583 21.6083 14.175 20.825C13.3917 20.0417 13 19.1 13 18C13 16.9 13.3917 15.9583 14.175 15.175C14.9583 14.3917 15.9 14 17 14C18.1 14 19.0417 14.3917 19.825 15.175C20.6083 15.9583 21 16.9 21 18C21 19.1 20.6083 20.0417 19.825 20.825C19.0417 21.6083 18.1 22 17 22ZM9 28V27.2C9 26.6333 9.14583 26.1125 9.4375 25.6375C9.72917 25.1625 10.1167 24.8 10.6 24.55C11.6333 24.0333 12.6833 23.6458 13.75 23.3875C14.8167 23.1292 15.9 23 17 23C18.1 23 19.1833 23.1292 20.25 23.3875C21.3167 23.6458 22.3667 24.0333 23.4 24.55C23.8833 24.8 24.2708 25.1625 24.5625 25.6375C24.8542 26.1125 25 26.6333 25 27.2V28C25 28.55 24.8042 29.0208 24.4125 29.4125C24.0208 29.8042 23.55 30 23 30H11C10.45 30 9.97917 29.8042 9.5875 29.4125C9.19583 29.0208 9 28.55 9 28Z" fill="#251D35" fill-opacity="0.45"/>
<path d="M30 10C30.5523 10 31 10.4477 31 11L31 15L23 15L23 11C23 10.4477 23.4477 10 24 10L30 10Z" fill="#251D35" fill-opacity="0.45"/>
<path fill-rule="evenodd" clip-rule="evenodd" d="M31 20V16H23V20C23 20.5523 23.4477 21 24 21L30 21C30.5523 21 31 20.5523 31 20ZM25 19.5C25.5523 19.5 26 19.0523 26 18.5C26 17.9477 25.5523 17.5 25 17.5C24.4477 17.5 24 17.9477 24 18.5C24 19.0523 24.4477 19.5 25 19.5Z" fill="#251D35" fill-opacity="0.45"/>
</svg>
