<svg width="1em" height="1em" viewBox="0 0 40 40" fill="none" xmlns="http://www.w3.org/2000/svg">
<path d="M29 22C29.5523 22 30 22.4477 30 23L30 33.5C30 34.0523 29.5523 34.5 29 34.5L23 34.5C22.4477 34.5 22 34.0523 22 33.5L22 23C22 22.4477 22.4477 22 23 22L29 22Z" fill="#251D35" fill-opacity="0.45"/>
<path d="M10.5 22C11.0523 22 11.5 22.4477 11.5 23L11.5 33.5C11.5 34.0523 11.0523 34.5 10.5 34.5C9.94771 34.5 9.5 34.0523 9.5 33.5L9.5 23C9.5 22.4477 9.94772 22 10.5 22Z" fill="#251D35" fill-opacity="0.45"/>
<path d="M10.2 18.8001H34V33C34 35.7614 31.9107 38 29.3333 38H10.6667C8.08934 38 6 35.7614 6 33V7.0002C6 4.23879 8.08931 2.00022 10.6666 2.0002L29.3333 2C31.9106 1.99997 34 4.23856 34 7.00001V14.9599" stroke="#251D35" stroke-opacity="0.45" stroke-width="1.5" stroke-linecap="round"/>
</svg>
