<svg width="1em" height="1em" viewBox="0 0 40 40" fill="none" xmlns="http://www.w3.org/2000/svg">
    <path fill-rule="evenodd" clip-rule="evenodd" d="M9.8 2.6C8.95131 2.6 8.13737 2.93714 7.53726 3.53726C6.93714 4.13737 6.6 4.95131 6.6 5.8V33.8C6.6 35.5673 8.03269 37 9.8 37H21.3C21.7418 37 22.1 37.3582 22.1 37.8C22.1 38.2418 21.7418 38.6 21.3 38.6H9.8C7.14903 38.6 5 36.451 5 33.8V5.8C5 4.52696 5.50571 3.30606 6.40589 2.40589C7.30606 1.50571 8.52696 1 9.8 1H23.8C24.0122 1 24.2157 1.08429 24.3657 1.23431L34.3657 11.2343C34.5157 11.3843 34.6 11.5878 34.6 11.8V20.8C34.6 21.2418 34.2418 21.6 33.8 21.6C33.3582 21.6 33 21.2418 33 20.8V12.1314L23.4686 2.6H9.8ZM22.8 4C23.2418 4 23.6 4.35817 23.6 4.8V11.2C23.6 11.4122 23.6843 11.6157 23.8343 11.7657C23.9843 11.9157 24.1878 12 24.4 12H30.8C31.2418 12 31.6 12.3582 31.6 12.8C31.6 13.2418 31.2418 13.6 30.8 13.6H24.4C23.7635 13.6 23.153 13.3471 22.7029 12.8971C22.2529 12.447 22 11.8365 22 11.2V4.8C22 4.35817 22.3582 4 22.8 4ZM10 6.8C10 6.35817 10.3582 6 10.8 6H17.8C18.2418 6 18.6 6.35817 18.6 6.8C18.6 7.24183 18.2418 7.6 17.8 7.6H10.8C10.3582 7.6 10 7.24183 10 6.8ZM10 11.8C10 11.3582 10.3582 11 10.8 11H17.8C18.2418 11 18.6 11.3582 18.6 11.8C18.6 12.2418 18.2418 12.6 17.8 12.6H10.8C10.3582 12.6 10 12.2418 10 11.8ZM10 17.8C10 17.3582 10.3582 17 10.8 17H28.8C29.2418 17 29.6 17.3582 29.6 17.8C29.6 18.2418 29.2418 18.6 28.8 18.6H10.8C10.3582 18.6 10 18.2418 10 17.8ZM10 22.8C10 22.3582 10.3582 22 10.8 22H22.8C23.2418 22 23.6 22.3582 23.6 22.8C23.6 23.2418 23.2418 23.6 22.8 23.6H10.8C10.3582 23.6 10 23.2418 10 22.8Z" fill="currentColor" fill-opacity="0.45"/>
    <g clip-path="url(#clip0_1511_135)">
        <circle cx="32" cy="32" r="8" fill="white"/>
        <path d="M32 36C32.2267 36 32.4167 35.9233 32.57 35.77C32.7233 35.6167 32.8 35.4267 32.8 35.2C32.8 34.9733 32.7233 34.7833 32.57 34.63C32.4167 34.4767 32.2267 34.4 32 34.4C31.7733 34.4 31.5833 34.4767 31.43 34.63C31.2767 34.7833 31.2 34.9733 31.2 35.2C31.2 35.4267 31.2767 35.6167 31.43 35.77C31.5833 35.9233 31.7733 36 32 36ZM32 32.8C32.2267 32.8 32.4167 32.7233 32.57 32.57C32.7233 32.4167 32.8 32.2267 32.8 32V28.8C32.8 28.5733 32.7233 28.3833 32.57 28.23C32.4167 28.0767 32.2267 28 32 28C31.7733 28 31.5833 28.0767 31.43 28.23C31.2767 28.3833 31.2 28.5733 31.2 28.8V32C31.2 32.2267 31.2767 32.4167 31.43 32.57C31.5833 32.7233 31.7733 32.8 32 32.8ZM32 40C30.8933 40 29.8533 39.79 28.88 39.37C27.9067 38.95 27.06 38.38 26.34 37.66C25.62 36.94 25.05 36.0933 24.63 35.12C24.21 34.1467 24 33.1067 24 32C24 30.8933 24.21 29.8533 24.63 28.88C25.05 27.9067 25.62 27.06 26.34 26.34C27.06 25.62 27.9067 25.05 28.88 24.63C29.8533 24.21 30.8933 24 32 24C33.1067 24 34.1467 24.21 35.12 24.63C36.0933 25.05 36.94 25.62 37.66 26.34C38.38 27.06 38.95 27.9067 39.37 28.88C39.79 29.8533 40 30.8933 40 32C40 33.1067 39.79 34.1467 39.37 35.12C38.95 36.0933 38.38 36.94 37.66 37.66C36.94 38.38 36.0933 38.95 35.12 39.37C34.1467 39.79 33.1067 40 32 40Z" fill="#FAAD14"/>
    </g>
    <defs>
        <clipPath id="clip0_1511_135">
            <rect width="16" height="16" fill="white" transform="translate(24 24)"/>
        </clipPath>
    </defs>
</svg>
